solid VAS Banshee Stecter Horn
facet normal 0.5467889009387266 0.837270504562426 0.0
outer loop
vertex 22.450794841467832 46.23465268169926 2.5
vertex 46.950794841467854 30.23465268169926 0.0
vertex 22.450794841467832 46.23465268169926 0.0
endloop
endfacet
facet normal 0.5467889009387266 0.837270504562426 0.0
outer loop
vertex 46.950794841467854 30.23465268169926 0.0
vertex 22.450794841467832 46.23465268169926 2.5
vertex 46.950794841467854 30.23465268169926 2.5
endloop
endfacet
facet normal 1.0 0.0 0.0
outer loop
vertex 20.450794841467836 36.73465268169926 0.0
vertex 20.48486901517875 36.47583363659674 2.5
vertex 20.48486901517875 36.47583363659674 0.0
endloop
endfacet
facet normal 0.9659258262890673 0.25881904510252457 0.0
outer loop
vertex 20.48486901517875 36.47583363659674 2.5
vertex 20.450794841467836 36.73465268169926 0.0
vertex 20.450794841467836 36.73465268169926 2.5
endloop
endfacet
facet normal 0.0 0.0 1.0
outer loop
vertex 26.450794841467868 9.234652681699258 2.5
vertex 26.450794841467868 14.234652681699256 2.5
vertex 23.451451393021266 13.519429036622947 2.5
endloop
endfacet
facet normal 0.0 0.0 1.0
outer loop
vertex 26.450794841467868 14.234652681699256 2.5
vertex 26.450794841467868 9.234652681699258 2.5
vertex 31.45079484146786 14.234652681699256 2.5
endloop
endfacet
facet normal 0.0 0.0 1.0
outer loop
vertex 26.450794841467868 14.234652681699256 2.5
vertex 31.45079484146786 14.234652681699256 2.5
vertex 26.450794841467868 25.73465268169926 2.5
endloop
endfacet
facet normal 0.0 0.0 1.0
outer loop
vertex 41.96498284146786 12.734652681699261 2.5
vertex 41.96498284146786 17.734652681699263 2.5
vertex 38.94364473956997 17.050849970124812 2.5
endloop
endfacet
facet normal 0.0 0.0 1.0
outer loop
vertex 41.96498284146786 17.734652681699263 2.5
vertex 41.96498284146786 12.734652681699261 2.5
vertex 46.959525918390916 17.734652681699263 2.5
endloop
endfacet
facet normal 0.0 0.0 1.0
outer loop
vertex 41.96498284146786 17.734652681699263 2.5
vertex 46.959525918390916 17.734652681699263 2.5
vertex 41.96498284146786 25.73465268169926 2.5
endloop
endfacet
facet normal 0.0 0.0 1.0
outer loop
vertex 41.96498284146786 25.73465268169926 2.5
vertex 46.959525918390916 17.734652681699263 2.5
vertex 46.950794841467854 30.23465268169926 2.5
endloop
endfacet
facet normal 0.0 0.0 1.0
outer loop
vertex 20.450794841467836 25.73465268169926 2.5
vertex 20.48486901517875 30.17583363659674 2.5
vertex 20.450794841467836 30.43465268169926 2.5
endloop
endfacet
facet normal 0.0 0.0 1.0
outer loop
vertex 20.48486901517875 30.17583363659674 2.5
vertex 20.450794841467836 25.73465268169926 2.5
vertex 20.5847694376834 29.93465268169926 2.5
endloop
endfacet
facet normal 0.0 0.0 1.0
outer loop
vertex 20.5847694376834 29.93465268169926 2.5
vertex 20.450794841467836 25.73465268169926 2.5
vertex 20.743688060281283 29.727545900512713 2.5
endloop
endfacet
facet normal 0.0 0.0 1.0
outer loop
vertex 20.743688060281283 29.727545900512713 2.5
vertex 20.450794841467836 25.73465268169926 2.5
vertex 20.95079484146781 29.568627277914818 2.5
endloop
endfacet
facet normal 0.0 0.0 1.0
outer loop
vertex 20.95079484146781 29.568627277914818 2.5
vertex 20.450794841467836 25.73465268169926 2.5
vertex 26.450794841467868 25.73465268169926 2.5
endloop
endfacet
facet normal 0.0 0.0 1.0
outer loop
vertex 20.95079484146781 29.568627277914818 2.5
vertex 26.450794841467868 25.73465268169926 2.5
vertex 21.1919757963653 29.468726855410193 2.5
endloop
endfacet
facet normal 0.0 0.0 1.0
outer loop
vertex 21.1919757963653 29.468726855410193 2.5
vertex 26.450794841467868 25.73465268169926 2.5
vertex 21.450794841467832 29.43465268169926 2.5
endloop
endfacet
facet normal 0.0 0.0 1.0
outer loop
vertex 21.450794841467832 29.43465268169926 2.5
vertex 26.450794841467868 25.73465268169926 2.5
vertex 21.709613886570367 29.468726855410193 2.5
endloop
endfacet
facet normal 0.0 0.0 1.0
outer loop
vertex 21.709613886570367 29.468726855410193 2.5
vertex 26.450794841467868 25.73465268169926 2.5
vertex 21.95079484146781 29.568627277914818 2.5
endloop
endfacet
facet normal 0.0 0.0 1.0
outer loop
vertex 21.95079484146781 29.568627277914818 2.5
vertex 26.450794841467868 25.73465268169926 2.5
vertex 22.157901622654382 29.727545900512713 2.5
endloop
endfacet
facet normal 0.0 0.0 1.0
outer loop
vertex 22.157901622654382 29.727545900512713 2.5
vertex 26.450794841467868 25.73465268169926 2.5
vertex 22.316820245252266 29.93465268169926 2.5
endloop
endfacet
facet normal 0.0 0.0 1.0
outer loop
vertex 22.316820245252266 29.93465268169926 2.5
vertex 26.450794841467868 25.73465268169926 2.5
vertex 22.416720667756916 30.175833636596735 2.5
endloop
endfacet
facet normal 0.0 0.0 1.0
outer loop
vertex 22.416720667756916 30.175833636596735 2.5
vertex 26.450794841467868 25.73465268169926 2.5
vertex 22.450794841467832 30.43465268169926 2.5
endloop
endfacet
facet normal 0.0 0.0 1.0
outer loop
vertex 22.450794841467832 30.43465268169926 2.5
vertex 26.450794841467868 25.73465268169926 2.5
vertex 22.450794841467832 36.73465268169926 2.5
endloop
endfacet
facet normal 0.0 0.0 1.0
outer loop
vertex 22.450794841467832 36.73465268169926 2.5
vertex 26.450794841467868 25.73465268169926 2.5
vertex 22.450794841467832 43.09465268169926 2.5
endloop
endfacet
facet normal 0.0 0.0 1.0
outer loop
vertex 22.450794841467832 43.09465268169926 2.5
vertex 26.450794841467868 25.73465268169926 2.5
vertex 22.450794841467832 46.23465268169926 2.5
endloop
endfacet
facet normal 0.0 0.0 1.0
outer loop
vertex 22.450794841467832 46.23465268169926 2.5
vertex 26.450794841467868 25.73465268169926 2.5
vertex 46.950794841467854 30.23465268169926 2.5
endloop
endfacet
facet normal 0.0 0.0 1.0
outer loop
vertex 46.950794841467854 30.23465268169926 2.5
vertex 26.450794841467868 25.73465268169926 2.5
vertex 31.45079484146786 25.73465268169926 2.5
endloop
endfacet
facet normal 0.0 0.0 1.0
outer loop
vertex 31.45079484146786 25.73465268169926 2.5
vertex 26.450794841467868 25.73465268169926 2.5
vertex 31.45079484146786 14.234652681699256 2.5
endloop
endfacet
facet normal 0.0 0.0 1.0
outer loop
vertex 46.950794841467854 30.23465268169926 2.5
vertex 31.45079484146786 25.73465268169926 2.5
vertex 41.96498284146786 25.73465268169926 2.5
endloop
endfacet
facet normal 0.0 0.0 1.0
outer loop
vertex 20.450794841467836 25.73465268169926 2.5
vertex 18.45079484146784 46.23465268169926 2.5
vertex 18.45079484146784 29.09465268169926 2.5
endloop
endfacet
facet normal 0.0 0.0 1.0
outer loop
vertex 18.45079484146784 46.23465268169926 2.5
vertex 20.450794841467836 25.73465268169926 2.5
vertex 20.450794841467836 43.09465268169926 2.5
endloop
endfacet
facet normal 0.0 0.0 1.0
outer loop
vertex 18.45079484146784 46.23465268169926 2.5
vertex 20.450794841467836 43.09465268169926 2.5
vertex 20.48486901517875 43.35347172680178 2.5
endloop
endfacet
facet normal 0.0 0.0 1.0
outer loop
vertex 18.45079484146784 46.23465268169926 2.5
vertex 20.48486901517875 43.35347172680178 2.5
vertex 20.5847694376834 43.59465268169925 2.5
endloop
endfacet
facet normal 0.0 0.0 1.0
outer loop
vertex 18.45079484146784 46.23465268169926 2.5
vertex 20.5847694376834 43.59465268169925 2.5
vertex 22.450794841467832 46.23465268169926 2.5
endloop
endfacet
facet normal 0.0 0.0 1.0
outer loop
vertex 20.450794841467836 43.09465268169926 2.5
vertex 20.450794841467836 25.73465268169926 2.5
vertex 20.450794841467836 30.43465268169926 2.5
endloop
endfacet
facet normal 0.0 0.0 1.0
outer loop
vertex 20.450794841467836 43.09465268169926 2.5
vertex 20.450794841467836 30.43465268169926 2.5
vertex 20.450794841467836 36.73465268169926 2.5
endloop
endfacet
facet normal 0.0 0.0 1.0
outer loop
vertex 22.450794841467832 46.23465268169926 2.5
vertex 20.5847694376834 43.59465268169925 2.5
vertex 20.743688060281283 43.801759462885805 2.5
endloop
endfacet
facet normal 0.0 0.0 1.0
outer loop
vertex 22.450794841467832 46.23465268169926 2.5
vertex 20.743688060281283 43.801759462885805 2.5
vertex 20.950794841467857 43.96067808548369 2.5
endloop
endfacet
facet normal 0.0 0.0 1.0
outer loop
vertex 22.450794841467832 46.23465268169926 2.5
vertex 20.950794841467857 43.96067808548369 2.5
vertex 21.1919757963653 44.060578507988325 2.5
endloop
endfacet
facet normal 0.0 0.0 1.0
outer loop
vertex 22.450794841467832 46.23465268169926 2.5
vertex 21.1919757963653 44.060578507988325 2.5
vertex 21.450794841467832 44.09465268169925 2.5
endloop
endfacet
facet normal 0.0 0.0 1.0
outer loop
vertex 22.450794841467832 46.23465268169926 2.5
vertex 21.450794841467832 44.09465268169925 2.5
vertex 21.709613886570367 44.060578507988325 2.5
endloop
endfacet
facet normal 0.0 0.0 1.0
outer loop
vertex 22.450794841467832 46.23465268169926 2.5
vertex 21.709613886570367 44.060578507988325 2.5
vertex 21.950794841467854 43.96067808548369 2.5
endloop
endfacet
facet normal 0.0 0.0 1.0
outer loop
vertex 22.450794841467832 46.23465268169926 2.5
vertex 21.950794841467854 43.96067808548369 2.5
vertex 22.157901622654382 43.801759462885805 2.5
endloop
endfacet
facet normal 0.0 0.0 1.0
outer loop
vertex 22.450794841467832 46.23465268169926 2.5
vertex 22.157901622654382 43.801759462885805 2.5
vertex 22.316820245252266 43.59465268169925 2.5
endloop
endfacet
facet normal 0.0 0.0 1.0
outer loop
vertex 22.450794841467832 46.23465268169926 2.5
vertex 22.316820245252266 43.59465268169925 2.5
vertex 22.416720667756916 43.35347172680178 2.5
endloop
endfacet
facet normal 0.0 0.0 1.0
outer loop
vertex 22.450794841467832 46.23465268169926 2.5
vertex 22.416720667756916 43.35347172680178 2.5
vertex 22.450794841467832 43.09465268169926 2.5
endloop
endfacet
facet normal 0.0 0.0 1.0
outer loop
vertex 20.48486901517875 36.99347172680177 2.5
vertex 20.450794841467836 43.09465268169926 2.5
vertex 20.450794841467836 36.73465268169926 2.5
endloop
endfacet
facet normal 0.0 0.0 1.0
outer loop
vertex 20.450794841467836 43.09465268169926 2.5
vertex 20.48486901517875 36.99347172680177 2.5
vertex 20.48486901517875 42.83583363659673 2.5
endloop
endfacet
facet normal 0.0 0.0 1.0
outer loop
vertex 20.48486901517875 42.83583363659673 2.5
vertex 20.48486901517875 36.99347172680177 2.5
vertex 20.5847694376834 37.23465268169926 2.5
endloop
endfacet
facet normal 0.0 0.0 1.0
outer loop
vertex 20.48486901517875 42.83583363659673 2.5
vertex 20.5847694376834 37.23465268169926 2.5
vertex 20.5847694376834 42.59465268169926 2.5
endloop
endfacet
facet normal 0.0 0.0 1.0
outer loop
vertex 20.5847694376834 42.59465268169926 2.5
vertex 20.5847694376834 37.23465268169926 2.5
vertex 20.743688060281283 37.4417594628858 2.5
endloop
endfacet
facet normal 0.0 0.0 1.0
outer loop
vertex 20.5847694376834 42.59465268169926 2.5
vertex 20.743688060281283 37.4417594628858 2.5
vertex 20.743688060281283 42.387545900512706 2.5
endloop
endfacet
facet normal 0.0 0.0 1.0
outer loop
vertex 20.743688060281283 42.387545900512706 2.5
vertex 20.743688060281283 37.4417594628858 2.5
vertex 20.950794841467857 37.60067808548369 2.5
endloop
endfacet
facet normal 0.0 0.0 1.0
outer loop
vertex 20.743688060281283 42.387545900512706 2.5
vertex 20.950794841467857 37.60067808548369 2.5
vertex 20.95079484146781 42.228627277914825 2.5
endloop
endfacet
facet normal 0.0 0.0 1.0
outer loop
vertex 20.95079484146781 42.228627277914825 2.5
vertex 20.950794841467857 37.60067808548369 2.5
vertex 21.1919757963653 42.12872685541019 2.5
endloop
endfacet
facet normal 0.0 0.0 1.0
outer loop
vertex 21.1919757963653 42.12872685541019 2.5
vertex 20.950794841467857 37.60067808548369 2.5
vertex 21.1919757963653 37.700578507988325 2.5
endloop
endfacet
facet normal 0.0 0.0 1.0
outer loop
vertex 21.1919757963653 42.12872685541019 2.5
vertex 21.1919757963653 37.700578507988325 2.5
vertex 21.450794841467832 37.73465268169925 2.5
endloop
endfacet
facet normal 0.0 0.0 1.0
outer loop
vertex 21.1919757963653 42.12872685541019 2.5
vertex 21.450794841467832 37.73465268169925 2.5
vertex 21.450794841467832 42.09465268169926 2.5
endloop
endfacet
facet normal 0.0 0.0 1.0
outer loop
vertex 21.450794841467832 42.09465268169926 2.5
vertex 21.450794841467832 37.73465268169925 2.5
vertex 21.709613886570367 37.700578507988325 2.5
endloop
endfacet
facet normal 0.0 0.0 1.0
outer loop
vertex 21.450794841467832 42.09465268169926 2.5
vertex 21.709613886570367 37.700578507988325 2.5
vertex 21.709613886570367 42.12872685541019 2.5
endloop
endfacet
facet normal 0.0 0.0 1.0
outer loop
vertex 21.709613886570367 42.12872685541019 2.5
vertex 21.709613886570367 37.700578507988325 2.5
vertex 21.950794841467854 37.60067808548369 2.5
endloop
endfacet
facet normal 0.0 0.0 1.0
outer loop
vertex 21.709613886570367 42.12872685541019 2.5
vertex 21.950794841467854 37.60067808548369 2.5
vertex 21.95079484146781 42.228627277914825 2.5
endloop
endfacet
facet normal 0.0 0.0 1.0
outer loop
vertex 21.95079484146781 42.228627277914825 2.5
vertex 21.950794841467854 37.60067808548369 2.5
vertex 22.157901622654382 42.387545900512706 2.5
endloop
endfacet
facet normal 0.0 0.0 1.0
outer loop
vertex 22.157901622654382 42.387545900512706 2.5
vertex 21.950794841467854 37.60067808548369 2.5
vertex 22.157901622654382 37.4417594628858 2.5
endloop
endfacet
facet normal 0.0 0.0 1.0
outer loop
vertex 22.157901622654382 42.387545900512706 2.5
vertex 22.157901622654382 37.4417594628858 2.5
vertex 22.316820245252266 37.23465268169926 2.5
endloop
endfacet
facet normal 0.0 0.0 1.0
outer loop
vertex 22.157901622654382 42.387545900512706 2.5
vertex 22.316820245252266 37.23465268169926 2.5
vertex 22.316820245252266 42.59465268169926 2.5
endloop
endfacet
facet normal 0.0 0.0 1.0
outer loop
vertex 22.316820245252266 42.59465268169926 2.5
vertex 22.316820245252266 37.23465268169926 2.5
vertex 22.416720667756916 36.99347172680177 2.5
endloop
endfacet
facet normal 0.0 0.0 1.0
outer loop
vertex 22.316820245252266 42.59465268169926 2.5
vertex 22.416720667756916 36.99347172680177 2.5
vertex 22.416720667756916 42.83583363659673 2.5
endloop
endfacet
facet normal 0.0 0.0 1.0
outer loop
vertex 22.416720667756916 42.83583363659673 2.5
vertex 22.416720667756916 36.99347172680177 2.5
vertex 22.450794841467832 36.73465268169926 2.5
endloop
endfacet
facet normal 0.0 0.0 1.0
outer loop
vertex 22.416720667756916 42.83583363659673 2.5
vertex 22.450794841467832 36.73465268169926 2.5
vertex 22.450794841467832 43.09465268169926 2.5
endloop
endfacet
facet normal 0.0 0.0 1.0
outer loop
vertex 20.48486901517875 30.693471726801775 2.5
vertex 20.450794841467836 36.73465268169926 2.5
vertex 20.450794841467836 30.43465268169926 2.5
endloop
endfacet
facet normal 0.0 0.0 1.0
outer loop
vertex 20.450794841467836 36.73465268169926 2.5
vertex 20.48486901517875 30.693471726801775 2.5
vertex 20.48486901517875 36.47583363659674 2.5
endloop
endfacet
facet normal 0.0 0.0 1.0
outer loop
vertex 20.48486901517875 36.47583363659674 2.5
vertex 20.48486901517875 30.693471726801775 2.5
vertex 20.5847694376834 30.934652681699255 2.5
endloop
endfacet
facet normal 0.0 0.0 1.0
outer loop
vertex 20.48486901517875 36.47583363659674 2.5
vertex 20.5847694376834 30.934652681699255 2.5
vertex 20.5847694376834 36.23465268169926 2.5
endloop
endfacet
facet normal 0.0 0.0 1.0
outer loop
vertex 20.5847694376834 36.23465268169926 2.5
vertex 20.5847694376834 30.934652681699255 2.5
vertex 20.743688060281283 31.1417594628858 2.5
endloop
endfacet
facet normal 0.0 0.0 1.0
outer loop
vertex 20.5847694376834 36.23465268169926 2.5
vertex 20.743688060281283 31.1417594628858 2.5
vertex 20.743688060281283 36.02754590051271 2.5
endloop
endfacet
facet normal 0.0 0.0 1.0
outer loop
vertex 20.743688060281283 36.02754590051271 2.5
vertex 20.743688060281283 31.1417594628858 2.5
vertex 20.950794841467857 31.300678085483696 2.5
endloop
endfacet
facet normal 0.0 0.0 1.0
outer loop
vertex 20.743688060281283 36.02754590051271 2.5
vertex 20.950794841467857 31.300678085483696 2.5
vertex 20.95079484146781 35.86862727791482 2.5
endloop
endfacet
facet normal 0.0 0.0 1.0
outer loop
vertex 20.95079484146781 35.86862727791482 2.5
vertex 20.950794841467857 31.300678085483696 2.5
vertex 21.1919757963653 35.76872685541019 2.5
endloop
endfacet
facet normal 0.0 0.0 1.0
outer loop
vertex 21.1919757963653 35.76872685541019 2.5
vertex 20.950794841467857 31.300678085483696 2.5
vertex 21.1919757963653 31.400578507988325 2.5
endloop
endfacet
facet normal 0.0 0.0 1.0
outer loop
vertex 21.1919757963653 35.76872685541019 2.5
vertex 21.1919757963653 31.400578507988325 2.5
vertex 21.450794841467832 31.434652681699255 2.5
endloop
endfacet
facet normal 0.0 0.0 1.0
outer loop
vertex 21.1919757963653 35.76872685541019 2.5
vertex 21.450794841467832 31.434652681699255 2.5
vertex 21.450794841467832 35.73465268169926 2.5
endloop
endfacet
facet normal 0.0 0.0 1.0
outer loop
vertex 21.450794841467832 35.73465268169926 2.5
vertex 21.450794841467832 31.434652681699255 2.5
vertex 21.709613886570367 31.400578507988325 2.5
endloop
endfacet
facet normal 0.0 0.0 1.0
outer loop
vertex 21.450794841467832 35.73465268169926 2.5
vertex 21.709613886570367 31.400578507988325 2.5
vertex 21.709613886570367 35.76872685541019 2.5
endloop
endfacet
facet normal 0.0 0.0 1.0
outer loop
vertex 21.709613886570367 35.76872685541019 2.5
vertex 21.709613886570367 31.400578507988325 2.5
vertex 21.950794841467854 31.300678085483696 2.5
endloop
endfacet
facet normal 0.0 0.0 1.0
outer loop
vertex 21.709613886570367 35.76872685541019 2.5
vertex 21.950794841467854 31.300678085483696 2.5
vertex 21.95079484146781 35.86862727791482 2.5
endloop
endfacet
facet normal 0.0 0.0 1.0
outer loop
vertex 21.95079484146781 35.86862727791482 2.5
vertex 21.950794841467854 31.300678085483696 2.5
vertex 22.157901622654382 36.02754590051271 2.5
endloop
endfacet
facet normal 0.0 0.0 1.0
outer loop
vertex 22.157901622654382 36.02754590051271 2.5
vertex 21.950794841467854 31.300678085483696 2.5
vertex 22.157901622654382 31.1417594628858 2.5
endloop
endfacet
facet normal 0.0 0.0 1.0
outer loop
vertex 22.157901622654382 36.02754590051271 2.5
vertex 22.157901622654382 31.1417594628858 2.5
vertex 22.316820245252266 30.934652681699255 2.5
endloop
endfacet
facet normal 0.0 0.0 1.0
outer loop
vertex 22.157901622654382 36.02754590051271 2.5
vertex 22.316820245252266 30.934652681699255 2.5
vertex 22.316820245252266 36.23465268169926 2.5
endloop
endfacet
facet normal 0.0 0.0 1.0
outer loop
vertex 22.316820245252266 36.23465268169926 2.5
vertex 22.316820245252266 30.934652681699255 2.5
vertex 22.416720667756916 30.693471726801775 2.5
endloop
endfacet
facet normal 0.0 0.0 1.0
outer loop
vertex 22.316820245252266 36.23465268169926 2.5
vertex 22.416720667756916 30.693471726801775 2.5
vertex 22.416720667756916 36.47583363659673 2.5
endloop
endfacet
facet normal 0.0 0.0 1.0
outer loop
vertex 22.416720667756916 36.47583363659673 2.5
vertex 22.416720667756916 30.693471726801775 2.5
vertex 22.450794841467832 30.43465268169926 2.5
endloop
endfacet
facet normal 0.0 0.0 1.0
outer loop
vertex 22.416720667756916 36.47583363659673 2.5
vertex 22.450794841467832 30.43465268169926 2.5
vertex 22.450794841467832 36.73465268169926 2.5
endloop
endfacet
facet normal -0.8660254037844259 -0.5000000000000221 0.0
outer loop
vertex 22.316820245252266 37.23465268169926 2.5
vertex 22.416720667756916 36.99347172680177 0.0
vertex 22.416720667756916 36.99347172680177 2.5
endloop
endfacet
facet normal -0.9659258262890673 -0.25881904510252457 0.0
outer loop
vertex 22.416720667756916 36.99347172680177 0.0
vertex 22.316820245252266 37.23465268169926 2.5
vertex 22.316820245252266 37.23465268169926 0.0
endloop
endfacet
facet normal 0.49999999999999684 -0.8660254037844404 0.0
outer loop
vertex 20.950794841467857 37.60067808548369 2.5
vertex 20.743688060281283 37.4417594628858 0.0
vertex 20.950794841467857 37.60067808548369 0.0
endloop
endfacet
facet normal 0.7071067811865327 -0.7071067811865623 0.0
outer loop
vertex 20.743688060281283 37.4417594628858 0.0
vertex 20.950794841467857 37.60067808548369 2.5
vertex 20.743688060281283 37.4417594628858 2.5
endloop
endfacet
facet normal 0.8660254037844259 0.5000000000000221 0.0
outer loop
vertex 20.5847694376834 42.59465268169926 0.0
vertex 20.743688060281283 42.387545900512706 2.5
vertex 20.743688060281283 42.387545900512706 0.0
endloop
endfacet
facet normal 0.7071067811865699 0.7071067811865253 0.0
outer loop
vertex 20.743688060281283 42.387545900512706 2.5
vertex 20.5847694376834 42.59465268169926 0.0
vertex 20.5847694376834 42.59465268169926 2.5
endloop
endfacet
facet normal 0.0 -1.0 0.0
outer loop
vertex 70.5752908225546 31.10660439423606 2.5000000000000004
vertex 67.5752908225546 31.10660439423606 5.999999999999999
vertex 67.5752908225546 31.10660439423606 2.5
endloop
endfacet
facet normal 0.0 -1.0 0.0
outer loop
vertex 67.5752908225546 31.10660439423606 5.999999999999999
vertex 70.5752908225546 31.10660439423606 2.5000000000000004
vertex 70.5752908225546 31.10660439423606 5.999999999999999
endloop
endfacet
facet normal -0.49999999999999684 0.8660254037844404 0.0
outer loop
vertex 21.95079484146781 42.228627277914825 2.5
vertex 22.157901622654382 42.387545900512706 0.0
vertex 21.95079484146781 42.228627277914825 0.0
endloop
endfacet
facet normal -0.7071067811865327 0.7071067811865623 0.0
outer loop
vertex 22.157901622654382 42.387545900512706 0.0
vertex 21.95079484146781 42.228627277914825 2.5
vertex 22.157901622654382 42.387545900512706 2.5
endloop
endfacet
facet normal -1.0 0.0 0.0
outer loop
vertex 41.96498284146786 25.73465268169926 2.5
vertex 41.96498284146786 17.734652681699263 0.0
vertex 41.96498284146786 17.734652681699263 2.5
endloop
endfacet
facet normal -1.0 0.0 0.0
outer loop
vertex 41.96498284146786 17.734652681699263 0.0
vertex 41.96498284146786 25.73465268169926 2.5
vertex 41.96498284146786 25.73465268169926 0.0
endloop
endfacet
facet normal 0.5000000000000138 0.8660254037844307 0.0
outer loop
vertex 20.95079484146781 35.86862727791482 2.5
vertex 21.1919757963653 35.76872685541019 0.0
vertex 20.95079484146781 35.86862727791482 0.0
endloop
endfacet
facet normal 0.2588190451025124 0.9659258262890705 0.0
outer loop
vertex 21.1919757963653 35.76872685541019 0.0
vertex 20.95079484146781 35.86862727791482 2.5
vertex 21.1919757963653 35.76872685541019 2.5
endloop
endfacet
facet normal 0.7071067811865327 -0.7071067811865623 0.0
outer loop
vertex 20.743688060281283 43.801759462885805 0.0
vertex 20.5847694376834 43.59465268169925 2.5
vertex 20.5847694376834 43.59465268169925 0.0
endloop
endfacet
facet normal 0.8660254037844259 -0.5000000000000221 0.0
outer loop
vertex 20.5847694376834 43.59465268169925 2.5
vertex 20.743688060281283 43.801759462885805 0.0
vertex 20.743688060281283 43.801759462885805 2.5
endloop
endfacet
facet normal 0.0 -1.0 0.0
outer loop
vertex 21.450794841467832 44.09465268169925 2.5
vertex 21.1919757963653 44.060578507988325 0.0
vertex 21.450794841467832 44.09465268169925 0.0
endloop
endfacet
facet normal 0.2588190451025444 -0.965925826289062 0.0
outer loop
vertex 21.1919757963653 44.060578507988325 0.0
vertex 21.450794841467832 44.09465268169925 2.5
vertex 21.1919757963653 44.060578507988325 2.5
endloop
endfacet
facet normal 0.0 1.0 0.0
outer loop
vertex 18.45079484146784 46.23465268169926 2.5
vertex 22.450794841467832 46.23465268169926 0.0
vertex 18.45079484146784 46.23465268169926 0.0
endloop
endfacet
facet normal 0.0 1.0 0.0
outer loop
vertex 22.450794841467832 46.23465268169926 0.0
vertex 18.45079484146784 46.23465268169926 2.5
vertex 22.450794841467832 46.23465268169926 2.5
endloop
endfacet
facet normal 0.7071067811865327 -0.7071067811865623 0.0
outer loop
vertex 20.743688060281283 37.4417594628858 0.0
vertex 20.5847694376834 37.23465268169926 2.5
vertex 20.5847694376834 37.23465268169926 0.0
endloop
endfacet
facet normal 0.8660254037844259 -0.5000000000000221 0.0
outer loop
vertex 20.5847694376834 37.23465268169926 2.5
vertex 20.743688060281283 37.4417594628858 0.0
vertex 20.743688060281283 37.4417594628858 2.5
endloop
endfacet
facet normal 0.9659258262890673 -0.25881904510252457 0.0
outer loop
vertex 20.48486901517875 36.99347172680177 0.0
vertex 20.450794841467836 36.73465268169926 2.5
vertex 20.450794841467836 36.73465268169926 0.0
endloop
endfacet
facet normal 1.0 0.0 0.0
outer loop
vertex 20.450794841467836 36.73465268169926 2.5
vertex 20.48486901517875 36.99347172680177 0.0
vertex 20.48486901517875 36.99347172680177 2.5
endloop
endfacet
facet normal -0.8192319205190387 -0.5734623443633309 -0.0
outer loop
vertex 23.451451393021266 13.519429036622947 2.5
vertex 26.450794841467868 9.234652681699258 0.0
vertex 26.450794841467868 9.234652681699258 2.5
endloop
endfacet
facet normal -0.8192319205190387 -0.5734623443633309 -0.0
outer loop
vertex 26.450794841467868 9.234652681699258 0.0
vertex 23.451451393021266 13.519429036622947 2.5
vertex 23.451451393021266 13.519429036622947 0.0
endloop
endfacet
facet normal -0.7071067811865699 -0.7071067811865253 0.0
outer loop
vertex 22.157901622654382 43.801759462885805 2.5
vertex 21.950794841467854 43.96067808548369 0.0
vertex 22.157901622654382 43.801759462885805 0.0
endloop
endfacet
facet normal -0.5000000000000138 -0.8660254037844307 0.0
outer loop
vertex 21.950794841467854 43.96067808548369 0.0
vertex 22.157901622654382 43.801759462885805 2.5
vertex 21.950794841467854 43.96067808548369 2.5
endloop
endfacet
facet normal -0.7071067811865699 -0.7071067811865253 0.0
outer loop
vertex 22.157901622654382 37.4417594628858 2.5
vertex 21.950794841467854 37.60067808548369 0.0
vertex 22.157901622654382 37.4417594628858 0.0
endloop
endfacet
facet normal -0.5000000000000138 -0.8660254037844307 0.0
outer loop
vertex 21.950794841467854 37.60067808548369 0.0
vertex 22.157901622654382 37.4417594628858 2.5
vertex 21.950794841467854 37.60067808548369 2.5
endloop
endfacet
facet normal -0.2588190451025124 -0.9659258262890705 0.0
outer loop
vertex 21.709613886570367 37.700578507988325 2.5
vertex 21.450794841467832 37.73465268169925 0.0
vertex 21.709613886570367 37.700578507988325 0.0
endloop
endfacet
facet normal 0.0 -1.0 0.0
outer loop
vertex 21.450794841467832 37.73465268169925 0.0
vertex 21.709613886570367 37.700578507988325 2.5
vertex 21.450794841467832 37.73465268169925 2.5
endloop
endfacet
facet normal 0.0 -1.0 0.0
outer loop
vertex 21.450794841467832 37.73465268169925 2.5
vertex 21.1919757963653 37.700578507988325 0.0
vertex 21.450794841467832 37.73465268169925 0.0
endloop
endfacet
facet normal 0.2588190451025444 -0.965925826289062 0.0
outer loop
vertex 21.1919757963653 37.700578507988325 0.0
vertex 21.450794841467832 37.73465268169925 2.5
vertex 21.1919757963653 37.700578507988325 2.5
endloop
endfacet
facet normal 0.7071067811865699 0.7071067811865253 0.0
outer loop
vertex 20.743688060281283 36.02754590051271 2.5
vertex 20.95079484146781 35.86862727791482 0.0
vertex 20.743688060281283 36.02754590051271 0.0
endloop
endfacet
facet normal 0.5000000000000138 0.8660254037844307 0.0
outer loop
vertex 20.95079484146781 35.86862727791482 0.0
vertex 20.743688060281283 36.02754590051271 2.5
vertex 20.95079484146781 35.86862727791482 2.5
endloop
endfacet
facet normal -0.8192319205190403 -0.5734623443633285 -0.0
outer loop
vertex 38.94364473956997 17.050849970124812 2.5
vertex 41.96498284146786 12.734652681699261 0.0
vertex 41.96498284146786 12.734652681699261 2.5
endloop
endfacet
facet normal -0.8192319205190403 -0.5734623443633285 -0.0
outer loop
vertex 41.96498284146786 12.734652681699261 0.0
vertex 38.94364473956997 17.050849970124812 2.5
vertex 38.94364473956997 17.050849970124812 0.0
endloop
endfacet
facet normal 0.9659258262890673 0.25881904510252457 0.0
outer loop
vertex 20.48486901517875 36.47583363659674 0.0
vertex 20.5847694376834 36.23465268169926 2.5
vertex 20.5847694376834 36.23465268169926 0.0
endloop
endfacet
facet normal 0.8660254037844259 0.5000000000000221 0.0
outer loop
vertex 20.5847694376834 36.23465268169926 2.5
vertex 20.48486901517875 36.47583363659674 0.0
vertex 20.48486901517875 36.47583363659674 2.5
endloop
endfacet
facet normal 0.8660254037844259 0.5000000000000221 0.0
outer loop
vertex 20.5847694376834 36.23465268169926 0.0
vertex 20.743688060281283 36.02754590051271 2.5
vertex 20.743688060281283 36.02754590051271 0.0
endloop
endfacet
facet normal 0.7071067811865699 0.7071067811865253 0.0
outer loop
vertex 20.743688060281283 36.02754590051271 2.5
vertex 20.5847694376834 36.23465268169926 0.0
vertex 20.5847694376834 36.23465268169926 2.5
endloop
endfacet
facet normal -1.0 -3.475332859302263e-16 0.0
outer loop
vertex 22.450794841467832 36.73465268169926 2.5
vertex 22.416720667756916 36.47583363659673 0.0
vertex 22.416720667756916 36.47583363659673 2.5
endloop
endfacet
facet normal -0.9659258262890671 0.2588190451025252 0.0
outer loop
vertex 22.416720667756916 36.47583363659673 0.0
vertex 22.450794841467832 36.73465268169926 2.5
vertex 22.450794841467832 36.73465268169926 0.0
endloop
endfacet
facet normal -0.9659258262890671 0.2588190451025252 0.0
outer loop
vertex 22.416720667756916 36.47583363659673 2.5
vertex 22.316820245252266 36.23465268169926 0.0
vertex 22.316820245252266 36.23465268169926 2.5
endloop
endfacet
facet normal -0.8660254037844254 0.5000000000000229 0.0
outer loop
vertex 22.316820245252266 36.23465268169926 0.0
vertex 22.416720667756916 36.47583363659673 2.5
vertex 22.416720667756916 36.47583363659673 0.0
endloop
endfacet
facet normal -0.8660254037844259 0.5000000000000221 0.0
outer loop
vertex 22.316820245252266 42.59465268169926 2.5
vertex 22.157901622654382 42.387545900512706 0.0
vertex 22.157901622654382 42.387545900512706 2.5
endloop
endfacet
facet normal -0.7071067811865327 0.7071067811865623 0.0
outer loop
vertex 22.157901622654382 42.387545900512706 0.0
vertex 22.316820245252266 42.59465268169926 2.5
vertex 22.316820245252266 42.59465268169926 0.0
endloop
endfacet
facet normal 0.7071067811865699 0.7071067811865253 0.0
outer loop
vertex 20.743688060281283 42.387545900512706 2.5
vertex 20.95079484146781 42.228627277914825 0.0
vertex 20.743688060281283 42.387545900512706 0.0
endloop
endfacet
facet normal 0.5000000000000138 0.8660254037844307 0.0
outer loop
vertex 20.95079484146781 42.228627277914825 0.0
vertex 20.743688060281283 42.387545900512706 2.5
vertex 20.95079484146781 42.228627277914825 2.5
endloop
endfacet
facet normal -0.0 -1.0 -0.0
outer loop
vertex 26.450794841467868 25.73465268169926 2.5
vertex 20.450794841467836 25.73465268169926 0.0
vertex 26.450794841467868 25.73465268169926 0.0
endloop
endfacet
facet normal -0.0 -1.0 -0.0
outer loop
vertex 20.450794841467836 25.73465268169926 0.0
vertex 26.450794841467868 25.73465268169926 2.5
vertex 20.450794841467836 25.73465268169926 2.5
endloop
endfacet
facet normal -0.0 -1.0 -0.0
outer loop
vertex 41.96498284146786 25.73465268169926 2.5
vertex 31.45079484146786 25.73465268169926 0.0
vertex 41.96498284146786 25.73465268169926 0.0
endloop
endfacet
facet normal -0.0 -1.0 -0.0
outer loop
vertex 31.45079484146786 25.73465268169926 0.0
vertex 41.96498284146786 25.73465268169926 2.5
vertex 31.45079484146786 25.73465268169926 2.5
endloop
endfacet
facet normal -0.22074156297727832 0.9753323343221777 0.0
outer loop
vertex 38.94364473956997 17.050849970124812 2.5
vertex 41.96498284146786 17.734652681699263 0.0
vertex 38.94364473956997 17.050849970124812 0.0
endloop
endfacet
facet normal -0.22074156297727832 0.9753323343221777 0.0
outer loop
vertex 41.96498284146786 17.734652681699263 0.0
vertex 38.94364473956997 17.050849970124812 2.5
vertex 41.96498284146786 17.734652681699263 2.5
endloop
endfacet
facet normal 0.0 1.0 0.0
outer loop
vertex 21.450794841467832 42.09465268169926 2.5
vertex 21.709613886570367 42.12872685541019 0.0
vertex 21.450794841467832 42.09465268169926 0.0
endloop
endfacet
facet normal -0.2588190451025444 0.965925826289062 0.0
outer loop
vertex 21.709613886570367 42.12872685541019 0.0
vertex 21.450794841467832 42.09465268169926 2.5
vertex 21.709613886570367 42.12872685541019 2.5
endloop
endfacet
facet normal -1.0 0.0 0.0
outer loop
vertex 26.450794841467868 25.73465268169926 2.5
vertex 26.450794841467868 14.234652681699256 0.0
vertex 26.450794841467868 14.234652681699256 2.5
endloop
endfacet
facet normal -1.0 0.0 0.0
outer loop
vertex 26.450794841467868 14.234652681699256 0.0
vertex 26.450794841467868 25.73465268169926 2.5
vertex 26.450794841467868 25.73465268169926 0.0
endloop
endfacet
facet normal 0.0 0.0 -1.0
outer loop
vertex 26.450794841467868 9.234652681699258 0.0
vertex 23.451451393021266 13.519429036622947 0.0
vertex 26.450794841467868 14.234652681699256 0.0
endloop
endfacet
facet normal 0.0 0.0 -1.0
outer loop
vertex 20.450794841467836 43.09465268169926 0.0
vertex 20.450794841467836 25.73465268169926 0.0
vertex 18.45079484146784 29.09465268169926 0.0
endloop
endfacet
facet normal 0.0 0.0 -1.0
outer loop
vertex 20.450794841467836 25.73465268169926 0.0
vertex 20.450794841467836 43.09465268169926 0.0
vertex 20.450794841467836 36.73465268169926 0.0
endloop
endfacet
facet normal 0.0 0.0 -1.0
outer loop
vertex 20.450794841467836 25.73465268169926 0.0
vertex 20.450794841467836 36.73465268169926 0.0
vertex 20.450794841467836 30.43465268169926 0.0
endloop
endfacet
facet normal 0.0 0.0 -1.0
outer loop
vertex 20.450794841467836 25.73465268169926 0.0
vertex 20.450794841467836 30.43465268169926 0.0
vertex 20.48486901517875 30.17583363659674 0.0
endloop
endfacet
facet normal 0.0 0.0 -1.0
outer loop
vertex 20.450794841467836 25.73465268169926 0.0
vertex 20.48486901517875 30.17583363659674 0.0
vertex 20.5847694376834 29.93465268169926 0.0
endloop
endfacet
facet normal 0.0 0.0 -1.0
outer loop
vertex 20.450794841467836 25.73465268169926 0.0
vertex 20.5847694376834 29.93465268169926 0.0
vertex 20.743688060281283 29.727545900512713 0.0
endloop
endfacet
facet normal 0.0 0.0 -1.0
outer loop
vertex 20.450794841467836 25.73465268169926 0.0
vertex 20.743688060281283 29.727545900512713 0.0
vertex 20.95079484146781 29.568627277914818 0.0
endloop
endfacet
facet normal 0.0 0.0 -1.0
outer loop
vertex 20.450794841467836 25.73465268169926 0.0
vertex 20.95079484146781 29.568627277914818 0.0
vertex 26.450794841467868 25.73465268169926 0.0
endloop
endfacet
facet normal 0.0 0.0 -1.0
outer loop
vertex 26.450794841467868 25.73465268169926 0.0
vertex 20.95079484146781 29.568627277914818 0.0
vertex 21.1919757963653 29.468726855410193 0.0
endloop
endfacet
facet normal 0.0 0.0 -1.0
outer loop
vertex 26.450794841467868 25.73465268169926 0.0
vertex 21.1919757963653 29.468726855410193 0.0
vertex 21.450794841467832 29.43465268169926 0.0
endloop
endfacet
facet normal 0.0 0.0 -1.0
outer loop
vertex 26.450794841467868 25.73465268169926 0.0
vertex 21.450794841467832 29.43465268169926 0.0
vertex 21.709613886570367 29.468726855410193 0.0
endloop
endfacet
facet normal 0.0 0.0 -1.0
outer loop
vertex 26.450794841467868 25.73465268169926 0.0
vertex 21.709613886570367 29.468726855410193 0.0
vertex 21.95079484146781 29.568627277914818 0.0
endloop
endfacet
facet normal 0.0 0.0 -1.0
outer loop
vertex 26.450794841467868 25.73465268169926 0.0
vertex 21.95079484146781 29.568627277914818 0.0
vertex 22.157901622654382 29.727545900512713 0.0
endloop
endfacet
facet normal 0.0 0.0 -1.0
outer loop
vertex 26.450794841467868 25.73465268169926 0.0
vertex 22.157901622654382 29.727545900512713 0.0
vertex 22.316820245252266 29.93465268169926 0.0
endloop
endfacet
facet normal 0.0 0.0 -1.0
outer loop
vertex 26.450794841467868 25.73465268169926 0.0
vertex 22.316820245252266 29.93465268169926 0.0
vertex 22.416720667756916 30.175833636596735 0.0
endloop
endfacet
facet normal 0.0 0.0 -1.0
outer loop
vertex 26.450794841467868 25.73465268169926 0.0
vertex 22.416720667756916 30.175833636596735 0.0
vertex 22.450794841467832 30.43465268169926 0.0
endloop
endfacet
facet normal 0.0 0.0 -1.0
outer loop
vertex 20.48486901517875 36.47583363659674 0.0
vertex 20.450794841467836 30.43465268169926 0.0
vertex 20.450794841467836 36.73465268169926 0.0
endloop
endfacet
facet normal 0.0 0.0 -1.0
outer loop
vertex 20.450794841467836 30.43465268169926 0.0
vertex 20.48486901517875 36.47583363659674 0.0
vertex 20.48486901517875 30.693471726801775 0.0
endloop
endfacet
facet normal 0.0 0.0 -1.0
outer loop
vertex 20.48486901517875 30.693471726801775 0.0
vertex 20.48486901517875 36.47583363659674 0.0
vertex 20.5847694376834 36.23465268169926 0.0
endloop
endfacet
facet normal 0.0 0.0 -1.0
outer loop
vertex 20.48486901517875 30.693471726801775 0.0
vertex 20.5847694376834 36.23465268169926 0.0
vertex 20.5847694376834 30.934652681699255 0.0
endloop
endfacet
facet normal 0.0 0.0 -1.0
outer loop
vertex 20.5847694376834 30.934652681699255 0.0
vertex 20.5847694376834 36.23465268169926 0.0
vertex 20.743688060281283 36.02754590051271 0.0
endloop
endfacet
facet normal 0.0 0.0 -1.0
outer loop
vertex 20.5847694376834 30.934652681699255 0.0
vertex 20.743688060281283 36.02754590051271 0.0
vertex 20.743688060281283 31.1417594628858 0.0
endloop
endfacet
facet normal 0.0 0.0 -1.0
outer loop
vertex 20.743688060281283 31.1417594628858 0.0
vertex 20.743688060281283 36.02754590051271 0.0
vertex 20.95079484146781 35.86862727791482 0.0
endloop
endfacet
facet normal 0.0 0.0 -1.0
outer loop
vertex 20.743688060281283 31.1417594628858 0.0
vertex 20.95079484146781 35.86862727791482 0.0
vertex 20.950794841467857 31.300678085483696 0.0
endloop
endfacet
facet normal 0.0 0.0 -1.0
outer loop
vertex 20.950794841467857 31.300678085483696 0.0
vertex 20.95079484146781 35.86862727791482 0.0
vertex 21.1919757963653 35.76872685541019 0.0
endloop
endfacet
facet normal 0.0 0.0 -1.0
outer loop
vertex 20.950794841467857 31.300678085483696 0.0
vertex 21.1919757963653 35.76872685541019 0.0
vertex 21.1919757963653 31.400578507988325 0.0
endloop
endfacet
facet normal 0.0 0.0 -1.0
outer loop
vertex 21.1919757963653 31.400578507988325 0.0
vertex 21.1919757963653 35.76872685541019 0.0
vertex 21.450794841467832 35.73465268169926 0.0
endloop
endfacet
facet normal 0.0 0.0 -1.0
outer loop
vertex 21.1919757963653 31.400578507988325 0.0
vertex 21.450794841467832 35.73465268169926 0.0
vertex 21.450794841467832 31.434652681699255 0.0
endloop
endfacet
facet normal 0.0 0.0 -1.0
outer loop
vertex 21.450794841467832 31.434652681699255 0.0
vertex 21.450794841467832 35.73465268169926 0.0
vertex 21.709613886570367 35.76872685541019 0.0
endloop
endfacet
facet normal 0.0 0.0 -1.0
outer loop
vertex 21.450794841467832 31.434652681699255 0.0
vertex 21.709613886570367 35.76872685541019 0.0
vertex 21.709613886570367 31.400578507988325 0.0
endloop
endfacet
facet normal 0.0 0.0 -1.0
outer loop
vertex 21.709613886570367 31.400578507988325 0.0
vertex 21.709613886570367 35.76872685541019 0.0
vertex 21.95079484146781 35.86862727791482 0.0
endloop
endfacet
facet normal 0.0 0.0 -1.0
outer loop
vertex 21.709613886570367 31.400578507988325 0.0
vertex 21.95079484146781 35.86862727791482 0.0
vertex 21.950794841467854 31.300678085483696 0.0
endloop
endfacet
facet normal 0.0 0.0 -1.0
outer loop
vertex 21.950794841467854 31.300678085483696 0.0
vertex 21.95079484146781 35.86862727791482 0.0
vertex 22.157901622654382 36.02754590051271 0.0
endloop
endfacet
facet normal 0.0 0.0 -1.0
outer loop
vertex 21.950794841467854 31.300678085483696 0.0
vertex 22.157901622654382 36.02754590051271 0.0
vertex 22.157901622654382 31.1417594628858 0.0
endloop
endfacet
facet normal 0.0 0.0 -1.0
outer loop
vertex 22.157901622654382 31.1417594628858 0.0
vertex 22.157901622654382 36.02754590051271 0.0
vertex 22.316820245252266 36.23465268169926 0.0
endloop
endfacet
facet normal 0.0 0.0 -1.0
outer loop
vertex 22.157901622654382 31.1417594628858 0.0
vertex 22.316820245252266 36.23465268169926 0.0
vertex 22.316820245252266 30.934652681699255 0.0
endloop
endfacet
facet normal 0.0 0.0 -1.0
outer loop
vertex 22.316820245252266 30.934652681699255 0.0
vertex 22.316820245252266 36.23465268169926 0.0
vertex 22.416720667756916 36.47583363659673 0.0
endloop
endfacet
facet normal 0.0 0.0 -1.0
outer loop
vertex 22.316820245252266 30.934652681699255 0.0
vertex 22.416720667756916 36.47583363659673 0.0
vertex 22.416720667756916 30.693471726801775 0.0
endloop
endfacet
facet normal 0.0 0.0 -1.0
outer loop
vertex 22.416720667756916 30.693471726801775 0.0
vertex 22.416720667756916 36.47583363659673 0.0
vertex 22.450794841467832 36.73465268169926 0.0
endloop
endfacet
facet normal 0.0 0.0 -1.0
outer loop
vertex 22.416720667756916 30.693471726801775 0.0
vertex 22.450794841467832 36.73465268169926 0.0
vertex 22.450794841467832 30.43465268169926 0.0
endloop
endfacet
facet normal 0.0 0.0 -1.0
outer loop
vertex 20.48486901517875 42.83583363659673 0.0
vertex 20.450794841467836 36.73465268169926 0.0
vertex 20.450794841467836 43.09465268169926 0.0
endloop
endfacet
facet normal 0.0 0.0 -1.0
outer loop
vertex 20.450794841467836 36.73465268169926 0.0
vertex 20.48486901517875 42.83583363659673 0.0
vertex 20.48486901517875 36.99347172680177 0.0
endloop
endfacet
facet normal 0.0 0.0 -1.0
outer loop
vertex 20.48486901517875 36.99347172680177 0.0
vertex 20.48486901517875 42.83583363659673 0.0
vertex 20.5847694376834 42.59465268169926 0.0
endloop
endfacet
facet normal 0.0 0.0 -1.0
outer loop
vertex 20.48486901517875 36.99347172680177 0.0
vertex 20.5847694376834 42.59465268169926 0.0
vertex 20.5847694376834 37.23465268169926 0.0
endloop
endfacet
facet normal 0.0 0.0 -1.0
outer loop
vertex 20.5847694376834 37.23465268169926 0.0
vertex 20.5847694376834 42.59465268169926 0.0
vertex 20.743688060281283 42.387545900512706 0.0
endloop
endfacet
facet normal 0.0 0.0 -1.0
outer loop
vertex 20.5847694376834 37.23465268169926 0.0
vertex 20.743688060281283 42.387545900512706 0.0
vertex 20.743688060281283 37.4417594628858 0.0
endloop
endfacet
facet normal 0.0 0.0 -1.0
outer loop
vertex 20.743688060281283 37.4417594628858 0.0
vertex 20.743688060281283 42.387545900512706 0.0
vertex 20.95079484146781 42.228627277914825 0.0
endloop
endfacet
facet normal 0.0 0.0 -1.0
outer loop
vertex 20.743688060281283 37.4417594628858 0.0
vertex 20.95079484146781 42.228627277914825 0.0
vertex 20.950794841467857 37.60067808548369 0.0
endloop
endfacet
facet normal 0.0 0.0 -1.0
outer loop
vertex 20.950794841467857 37.60067808548369 0.0
vertex 20.95079484146781 42.228627277914825 0.0
vertex 21.1919757963653 42.12872685541019 0.0
endloop
endfacet
facet normal 0.0 0.0 -1.0
outer loop
vertex 20.950794841467857 37.60067808548369 0.0
vertex 21.1919757963653 42.12872685541019 0.0
vertex 21.1919757963653 37.700578507988325 0.0
endloop
endfacet
facet normal 0.0 0.0 -1.0
outer loop
vertex 21.1919757963653 37.700578507988325 0.0
vertex 21.1919757963653 42.12872685541019 0.0
vertex 21.450794841467832 42.09465268169926 0.0
endloop
endfacet
facet normal 0.0 0.0 -1.0
outer loop
vertex 21.1919757963653 37.700578507988325 0.0
vertex 21.450794841467832 42.09465268169926 0.0
vertex 21.450794841467832 37.73465268169925 0.0
endloop
endfacet
facet normal 0.0 0.0 -1.0
outer loop
vertex 21.450794841467832 37.73465268169925 0.0
vertex 21.450794841467832 42.09465268169926 0.0
vertex 21.709613886570367 42.12872685541019 0.0
endloop
endfacet
facet normal 0.0 0.0 -1.0
outer loop
vertex 21.450794841467832 37.73465268169925 0.0
vertex 21.709613886570367 42.12872685541019 0.0
vertex 21.709613886570367 37.700578507988325 0.0
endloop
endfacet
facet normal 0.0 0.0 -1.0
outer loop
vertex 21.709613886570367 37.700578507988325 0.0
vertex 21.709613886570367 42.12872685541019 0.0
vertex 21.95079484146781 42.228627277914825 0.0
endloop
endfacet
facet normal 0.0 0.0 -1.0
outer loop
vertex 21.709613886570367 37.700578507988325 0.0
vertex 21.95079484146781 42.228627277914825 0.0
vertex 21.950794841467854 37.60067808548369 0.0
endloop
endfacet
facet normal 0.0 0.0 -1.0
outer loop
vertex 21.950794841467854 37.60067808548369 0.0
vertex 21.95079484146781 42.228627277914825 0.0
vertex 22.157901622654382 42.387545900512706 0.0
endloop
endfacet
facet normal 0.0 0.0 -1.0
outer loop
vertex 21.950794841467854 37.60067808548369 0.0
vertex 22.157901622654382 42.387545900512706 0.0
vertex 22.157901622654382 37.4417594628858 0.0
endloop
endfacet
facet normal 0.0 0.0 -1.0
outer loop
vertex 22.157901622654382 37.4417594628858 0.0
vertex 22.157901622654382 42.387545900512706 0.0
vertex 22.316820245252266 42.59465268169926 0.0
endloop
endfacet
facet normal 0.0 0.0 -1.0
outer loop
vertex 22.157901622654382 37.4417594628858 0.0
vertex 22.316820245252266 42.59465268169926 0.0
vertex 22.316820245252266 37.23465268169926 0.0
endloop
endfacet
facet normal 0.0 0.0 -1.0
outer loop
vertex 22.316820245252266 37.23465268169926 0.0
vertex 22.316820245252266 42.59465268169926 0.0
vertex 22.416720667756916 42.83583363659673 0.0
endloop
endfacet
facet normal 0.0 0.0 -1.0
outer loop
vertex 22.316820245252266 37.23465268169926 0.0
vertex 22.416720667756916 42.83583363659673 0.0
vertex 22.416720667756916 36.99347172680177 0.0
endloop
endfacet
facet normal 0.0 0.0 -1.0
outer loop
vertex 22.416720667756916 36.99347172680177 0.0
vertex 22.416720667756916 42.83583363659673 0.0
vertex 22.450794841467832 43.09465268169926 0.0
endloop
endfacet
facet normal 0.0 0.0 -1.0
outer loop
vertex 22.416720667756916 36.99347172680177 0.0
vertex 22.450794841467832 43.09465268169926 0.0
vertex 22.450794841467832 36.73465268169926 0.0
endloop
endfacet
facet normal 0.0 0.0 -1.0
outer loop
vertex 18.45079484146784 46.23465268169926 0.0
vertex 20.48486901517875 43.35347172680178 0.0
vertex 18.45079484146784 29.09465268169926 0.0
endloop
endfacet
facet normal 0.0 0.0 -1.0
outer loop
vertex 20.48486901517875 43.35347172680178 0.0
vertex 18.45079484146784 46.23465268169926 0.0
vertex 20.5847694376834 43.59465268169925 0.0
endloop
endfacet
facet normal 0.0 0.0 -1.0
outer loop
vertex 20.5847694376834 43.59465268169925 0.0
vertex 18.45079484146784 46.23465268169926 0.0
vertex 22.450794841467832 46.23465268169926 0.0
endloop
endfacet
facet normal 0.0 0.0 -1.0
outer loop
vertex 18.45079484146784 29.09465268169926 0.0
vertex 20.48486901517875 43.35347172680178 0.0
vertex 20.450794841467836 43.09465268169926 0.0
endloop
endfacet
facet normal 0.0 0.0 -1.0
outer loop
vertex 20.5847694376834 43.59465268169925 0.0
vertex 22.450794841467832 46.23465268169926 0.0
vertex 20.743688060281283 43.801759462885805 0.0
endloop
endfacet
facet normal 0.0 0.0 -1.0
outer loop
vertex 20.743688060281283 43.801759462885805 0.0
vertex 22.450794841467832 46.23465268169926 0.0
vertex 20.950794841467857 43.96067808548369 0.0
endloop
endfacet
facet normal 0.0 0.0 -1.0
outer loop
vertex 20.950794841467857 43.96067808548369 0.0
vertex 22.450794841467832 46.23465268169926 0.0
vertex 21.1919757963653 44.060578507988325 0.0
endloop
endfacet
facet normal 0.0 0.0 -1.0
outer loop
vertex 21.1919757963653 44.060578507988325 0.0
vertex 22.450794841467832 46.23465268169926 0.0
vertex 21.450794841467832 44.09465268169925 0.0
endloop
endfacet
facet normal 0.0 0.0 -1.0
outer loop
vertex 21.450794841467832 44.09465268169925 0.0
vertex 22.450794841467832 46.23465268169926 0.0
vertex 21.709613886570367 44.060578507988325 0.0
endloop
endfacet
facet normal 0.0 0.0 -1.0
outer loop
vertex 21.709613886570367 44.060578507988325 0.0
vertex 22.450794841467832 46.23465268169926 0.0
vertex 21.950794841467854 43.96067808548369 0.0
endloop
endfacet
facet normal 0.0 0.0 -1.0
outer loop
vertex 21.950794841467854 43.96067808548369 0.0
vertex 22.450794841467832 46.23465268169926 0.0
vertex 22.157901622654382 43.801759462885805 0.0
endloop
endfacet
facet normal 0.0 0.0 -1.0
outer loop
vertex 22.157901622654382 43.801759462885805 0.0
vertex 22.450794841467832 46.23465268169926 0.0
vertex 22.316820245252266 43.59465268169925 0.0
endloop
endfacet
facet normal 0.0 0.0 -1.0
outer loop
vertex 22.316820245252266 43.59465268169925 0.0
vertex 22.450794841467832 46.23465268169926 0.0
vertex 22.416720667756916 43.35347172680178 0.0
endloop
endfacet
facet normal 0.0 0.0 -1.0
outer loop
vertex 22.416720667756916 43.35347172680178 0.0
vertex 22.450794841467832 46.23465268169926 0.0
vertex 22.450794841467832 43.09465268169926 0.0
endloop
endfacet
facet normal 0.0 0.0 -1.0
outer loop
vertex 22.450794841467832 43.09465268169926 0.0
vertex 22.450794841467832 46.23465268169926 0.0
vertex 46.950794841467854 30.23465268169926 0.0
endloop
endfacet
facet normal 0.0 0.0 -1.0
outer loop
vertex 22.450794841467832 43.09465268169926 0.0
vertex 46.950794841467854 30.23465268169926 0.0
vertex 22.450794841467832 36.73465268169926 0.0
endloop
endfacet
facet normal 0.0 0.0 -1.0
outer loop
vertex 22.450794841467832 36.73465268169926 0.0
vertex 46.950794841467854 30.23465268169926 0.0
vertex 22.450794841467832 30.43465268169926 0.0
endloop
endfacet
facet normal 0.0 0.0 -1.0
outer loop
vertex 22.450794841467832 30.43465268169926 0.0
vertex 46.950794841467854 30.23465268169926 0.0
vertex 26.450794841467868 25.73465268169926 0.0
endloop
endfacet
facet normal 0.0 0.0 -1.0
outer loop
vertex 26.450794841467868 25.73465268169926 0.0
vertex 46.950794841467854 30.23465268169926 0.0
vertex 31.45079484146786 25.73465268169926 0.0
endloop
endfacet
facet normal 0.0 0.0 -1.0
outer loop
vertex 26.450794841467868 25.73465268169926 0.0
vertex 31.45079484146786 25.73465268169926 0.0
vertex 26.450794841467868 14.234652681699256 0.0
endloop
endfacet
facet normal 0.0 0.0 -1.0
outer loop
vertex 26.450794841467868 14.234652681699256 0.0
vertex 31.45079484146786 25.73465268169926 0.0
vertex 26.450794841467868 9.234652681699258 0.0
endloop
endfacet
facet normal 0.0 0.0 -1.0
outer loop
vertex 31.45079484146786 25.73465268169926 0.0
vertex 46.950794841467854 30.23465268169926 0.0
vertex 41.96498284146786 25.73465268169926 0.0
endloop
endfacet
facet normal 0.0 0.0 -1.0
outer loop
vertex 41.96498284146786 25.73465268169926 0.0
vertex 46.950794841467854 30.23465268169926 0.0
vertex 41.96498284146786 17.734652681699263 0.0
endloop
endfacet
facet normal 0.0 0.0 -1.0
outer loop
vertex 41.96498284146786 17.734652681699263 0.0
vertex 46.950794841467854 30.23465268169926 0.0
vertex 41.96498284146786 12.734652681699261 0.0
endloop
endfacet
facet normal 0.0 0.0 -1.0
outer loop
vertex 41.96498284146786 12.734652681699261 0.0
vertex 46.950794841467854 30.23465268169926 0.0
vertex 46.959525918390916 17.734652681699263 0.0
endloop
endfacet
facet normal 0.0 0.0 -1.0
outer loop
vertex 41.96498284146786 12.734652681699261 0.0
vertex 38.94364473956997 17.050849970124812 0.0
vertex 41.96498284146786 17.734652681699263 0.0
endloop
endfacet
facet normal 0.0 0.0 -1.0
outer loop
vertex 31.45079484146786 14.234652681699256 0.0
vertex 26.450794841467868 9.234652681699258 0.0
vertex 31.45079484146786 25.73465268169926 0.0
endloop
endfacet
facet normal 0.0 1.0 0.0
outer loop
vertex 21.450794841467832 35.73465268169926 2.5
vertex 21.709613886570367 35.76872685541019 0.0
vertex 21.450794841467832 35.73465268169926 0.0
endloop
endfacet
facet normal -0.25881904510254206 0.9659258262890627 0.0
outer loop
vertex 21.709613886570367 35.76872685541019 0.0
vertex 21.450794841467832 35.73465268169926 2.5
vertex 21.709613886570367 35.76872685541019 2.5
endloop
endfacet
facet normal -0.25881904510254206 0.9659258262890627 0.0
outer loop
vertex 21.709613886570367 35.76872685541019 2.5
vertex 21.95079484146781 35.86862727791482 0.0
vertex 21.709613886570367 35.76872685541019 0.0
endloop
endfacet
facet normal -0.4999999999999966 0.8660254037844406 0.0
outer loop
vertex 21.95079484146781 35.86862727791482 0.0
vertex 21.709613886570367 35.76872685541019 2.5
vertex 21.95079484146781 35.86862727791482 2.5
endloop
endfacet
facet normal -0.8660254037844254 0.5000000000000229 0.0
outer loop
vertex 22.316820245252266 36.23465268169926 2.5
vertex 22.157901622654382 36.02754590051271 0.0
vertex 22.157901622654382 36.02754590051271 2.5
endloop
endfacet
facet normal -0.7071067811865341 0.7071067811865608 0.0
outer loop
vertex 22.157901622654382 36.02754590051271 0.0
vertex 22.316820245252266 36.23465268169926 2.5
vertex 22.316820245252266 36.23465268169926 0.0
endloop
endfacet
facet normal -0.5000000000000138 -0.8660254037844307 0.0
outer loop
vertex 21.950794841467854 37.60067808548369 2.5
vertex 21.709613886570367 37.700578507988325 0.0
vertex 21.950794841467854 37.60067808548369 0.0
endloop
endfacet
facet normal -0.2588190451025124 -0.9659258262890705 0.0
outer loop
vertex 21.709613886570367 37.700578507988325 0.0
vertex 21.950794841467854 37.60067808548369 2.5
vertex 21.709613886570367 37.700578507988325 2.5
endloop
endfacet
facet normal -0.5000000000000138 -0.8660254037844307 0.0
outer loop
vertex 21.950794841467854 43.96067808548369 2.5
vertex 21.709613886570367 44.060578507988325 0.0
vertex 21.950794841467854 43.96067808548369 0.0
endloop
endfacet
facet normal -0.2588190451025124 -0.9659258262890705 0.0
outer loop
vertex 21.709613886570367 44.060578507988325 0.0
vertex 21.950794841467854 43.96067808548369 2.5
vertex 21.709613886570367 44.060578507988325 2.5
endloop
endfacet
facet normal -0.2588190451025444 0.965925826289062 0.0
outer loop
vertex 21.709613886570367 42.12872685541019 2.5
vertex 21.95079484146781 42.228627277914825 0.0
vertex 21.709613886570367 42.12872685541019 0.0
endloop
endfacet
facet normal -0.49999999999999684 0.8660254037844404 0.0
outer loop
vertex 21.95079484146781 42.228627277914825 0.0
vertex 21.709613886570367 42.12872685541019 2.5
vertex 21.95079484146781 42.228627277914825 2.5
endloop
endfacet
facet normal 0.2588190451025124 0.9659258262890705 0.0
outer loop
vertex 21.1919757963653 35.76872685541019 2.5
vertex 21.450794841467832 35.73465268169926 0.0
vertex 21.1919757963653 35.76872685541019 0.0
endloop
endfacet
facet normal 0.0 1.0 0.0
outer loop
vertex 21.450794841467832 35.73465268169926 0.0
vertex 21.1919757963653 35.76872685541019 2.5
vertex 21.450794841467832 35.73465268169926 2.5
endloop
endfacet
facet normal 0.8660254037844255 0.5000000000000229 0.0
outer loop
vertex 20.5847694376834 29.93465268169926 0.0
vertex 20.743688060281283 29.727545900512713 2.5
vertex 20.743688060281283 29.727545900512713 0.0
endloop
endfacet
facet normal 0.70710678118657 0.7071067811865249 0.0
outer loop
vertex 20.743688060281283 29.727545900512713 2.5
vertex 20.5847694376834 29.93465268169926 0.0
vertex 20.5847694376834 29.93465268169926 2.5
endloop
endfacet
facet normal -0.9659258262890673 -0.25881904510252457 0.0
outer loop
vertex 22.416720667756916 36.99347172680177 2.5
vertex 22.450794841467832 36.73465268169926 0.0
vertex 22.450794841467832 36.73465268169926 2.5
endloop
endfacet
facet normal -1.0 -3.475332859302263e-16 0.0
outer loop
vertex 22.450794841467832 36.73465268169926 0.0
vertex 22.416720667756916 36.99347172680177 2.5
vertex 22.416720667756916 36.99347172680177 0.0
endloop
endfacet
facet normal 1.0 0.0 0.0
outer loop
vertex 31.45079484146786 25.73465268169926 0.0
vertex 31.45079484146786 14.234652681699256 2.5
vertex 31.45079484146786 14.234652681699256 0.0
endloop
endfacet
facet normal 1.0 0.0 0.0
outer loop
vertex 31.45079484146786 14.234652681699256 2.5
vertex 31.45079484146786 25.73465268169926 0.0
vertex 31.45079484146786 25.73465268169926 2.5
endloop
endfacet
facet normal 0.7071067811865482 -0.707106781186547 0.0
outer loop
vertex 31.45079484146786 14.234652681699256 0.0
vertex 26.450794841467868 9.234652681699258 2.5
vertex 26.450794841467868 9.234652681699258 0.0
endloop
endfacet
facet normal 0.7071067811865482 -0.707106781186547 0.0
outer loop
vertex 26.450794841467868 9.234652681699258 2.5
vertex 31.45079484146786 14.234652681699256 0.0
vertex 31.45079484146786 14.234652681699256 2.5
endloop
endfacet
facet normal -0.23195635524073757 0.9727261943956445 0.0
outer loop
vertex 23.451451393021266 13.519429036622947 2.5
vertex 26.450794841467868 14.234652681699256 0.0
vertex 23.451451393021266 13.519429036622947 0.0
endloop
endfacet
facet normal -0.23195635524073757 0.9727261943956445 0.0
outer loop
vertex 26.450794841467868 14.234652681699256 0.0
vertex 23.451451393021266 13.519429036622947 2.5
vertex 26.450794841467868 14.234652681699256 2.5
endloop
endfacet
facet normal -1.0 0.0 0.0
outer loop
vertex 22.450794841467832 43.09465268169926 2.5
vertex 22.416720667756916 42.83583363659673 0.0
vertex 22.416720667756916 42.83583363659673 2.5
endloop
endfacet
facet normal -0.9659258262890673 0.25881904510252457 0.0
outer loop
vertex 22.416720667756916 42.83583363659673 0.0
vertex 22.450794841467832 43.09465268169926 2.5
vertex 22.450794841467832 43.09465268169926 0.0
endloop
endfacet
facet normal 0.9659258262890673 0.25881904510252457 0.0
outer loop
vertex 20.48486901517875 42.83583363659673 0.0
vertex 20.5847694376834 42.59465268169926 2.5
vertex 20.5847694376834 42.59465268169926 0.0
endloop
endfacet
facet normal 0.8660254037844259 0.5000000000000221 0.0
outer loop
vertex 20.5847694376834 42.59465268169926 2.5
vertex 20.48486901517875 42.83583363659673 0.0
vertex 20.48486901517875 42.83583363659673 2.5
endloop
endfacet
facet normal 0.2588190451025444 -0.965925826289062 0.0
outer loop
vertex 21.1919757963653 44.060578507988325 2.5
vertex 20.950794841467857 43.96067808548369 0.0
vertex 21.1919757963653 44.060578507988325 0.0
endloop
endfacet
facet normal 0.49999999999999684 -0.8660254037844404 0.0
outer loop
vertex 20.950794841467857 43.96067808548369 0.0
vertex 21.1919757963653 44.060578507988325 2.5
vertex 20.950794841467857 43.96067808548369 2.5
endloop
endfacet
facet normal 0.0 -1.0 0.0
outer loop
vertex 83.0752908225546 31.10660439423606 6.0
vertex 83.0752908225546 31.10660439423606 2.5
vertex 87.07529082255463 31.10660439423606 2.5
endloop
endfacet
facet normal -1.762479051592439e-16 5.874930171974786e-17 1.0
outer loop
vertex 70.5752908225546 28.106604394236054 2.500000000000001
vertex 67.5752908225546 31.10660439423606 2.5
vertex 67.5752908225546 28.106604394236054 2.5
endloop
endfacet
facet normal -1.762479051592439e-16 5.874930171974786e-17 1.0
outer loop
vertex 67.5752908225546 31.10660439423606 2.5
vertex 70.5752908225546 28.106604394236054 2.500000000000001
vertex 70.5752908225546 31.10660439423606 2.5000000000000004
endloop
endfacet
facet normal 0.0 0.0 1.0
outer loop
vertex 55.075290822554614 24.606604394236058 2.5
vertex 55.575290822554585 28.106604394236054 2.5
vertex 55.075290822554614 34.60660439423606 2.5
endloop
endfacet
facet normal 0.0 0.0 1.0
outer loop
vertex 55.575290822554585 28.106604394236054 2.5
vertex 55.075290822554614 24.606604394236058 2.5
vertex 59.0752908225546 24.606604394236058 2.5
endloop
endfacet
facet normal 0.0 0.0 1.0
outer loop
vertex 59.0752908225546 28.106604394236054 2.5
vertex 55.575290822554585 31.10660439423606 2.5
vertex 55.575290822554585 28.106604394236054 2.5
endloop
endfacet
facet normal 0.0 0.0 1.0
outer loop
vertex 55.575290822554585 31.10660439423606 2.5
vertex 59.0752908225546 28.106604394236054 2.5
vertex 59.0752908225546 31.10660439423606 2.5
endloop
endfacet
facet normal 0.0 0.0 1.0
outer loop
vertex 55.075290822554614 34.60660439423606 2.5
vertex 55.575290822554585 31.10660439423606 2.5
vertex 59.0752908225546 34.60660439423605 2.5
endloop
endfacet
facet normal 0.0 0.0 1.0
outer loop
vertex 55.575290822554585 31.10660439423606 2.5
vertex 55.075290822554614 34.60660439423606 2.5
vertex 55.575290822554585 28.106604394236054 2.5
endloop
endfacet
facet normal -1.0 0.0 0.0
outer loop
vertex 18.45079484146784 46.23465268169926 2.5
vertex 18.45079484146784 29.09465268169926 0.0
vertex 18.45079484146784 29.09465268169926 2.5
endloop
endfacet
facet normal -1.0 0.0 0.0
outer loop
vertex 18.45079484146784 29.09465268169926 0.0
vertex 18.45079484146784 46.23465268169926 2.5
vertex 18.45079484146784 46.23465268169926 0.0
endloop
endfacet
facet normal 0.2588190451025444 -0.965925826289062 0.0
outer loop
vertex 21.1919757963653 37.700578507988325 2.5
vertex 20.950794841467857 37.60067808548369 0.0
vertex 21.1919757963653 37.700578507988325 0.0
endloop
endfacet
facet normal 0.49999999999999684 -0.8660254037844404 0.0
outer loop
vertex 20.950794841467857 37.60067808548369 0.0
vertex 21.1919757963653 37.700578507988325 2.5
vertex 20.950794841467857 37.60067808548369 2.5
endloop
endfacet
facet normal -0.25881904510254206 0.9659258262890627 0.0
outer loop
vertex 21.709613886570367 29.468726855410193 2.5
vertex 21.95079484146781 29.568627277914818 0.0
vertex 21.709613886570367 29.468726855410193 0.0
endloop
endfacet
facet normal -0.4999999999999966 0.8660254037844406 0.0
outer loop
vertex 21.95079484146781 29.568627277914818 0.0
vertex 21.709613886570367 29.468726855410193 2.5
vertex 21.95079484146781 29.568627277914818 2.5
endloop
endfacet
facet normal 1.0 0.0 0.0
outer loop
vertex 20.450794841467836 43.09465268169926 0.0
vertex 20.48486901517875 42.83583363659673 2.5
vertex 20.48486901517875 42.83583363659673 0.0
endloop
endfacet
facet normal 0.9659258262890673 0.25881904510252457 0.0
outer loop
vertex 20.48486901517875 42.83583363659673 2.5
vertex 20.450794841467836 43.09465268169926 0.0
vertex 20.450794841467836 43.09465268169926 2.5
endloop
endfacet
facet normal 0.49999999999999684 -0.8660254037844404 0.0
outer loop
vertex 20.950794841467857 31.300678085483696 2.5
vertex 20.743688060281283 31.1417594628858 0.0
vertex 20.950794841467857 31.300678085483696 0.0
endloop
endfacet
facet normal 0.7071067811865327 -0.7071067811865623 0.0
outer loop
vertex 20.743688060281283 31.1417594628858 0.0
vertex 20.950794841467857 31.300678085483696 2.5
vertex 20.743688060281283 31.1417594628858 2.5
endloop
endfacet
facet normal -0.7071067811865699 -0.7071067811865253 0.0
outer loop
vertex 22.157901622654382 31.1417594628858 2.5
vertex 22.316820245252266 30.934652681699255 0.0
vertex 22.316820245252266 30.934652681699255 2.5
endloop
endfacet
facet normal -0.8660254037844259 -0.5000000000000221 0.0
outer loop
vertex 22.316820245252266 30.934652681699255 0.0
vertex 22.157901622654382 31.1417594628858 2.5
vertex 22.157901622654382 31.1417594628858 0.0
endloop
endfacet
facet normal -0.8592928844097072 -0.511483859767682 -0.0
outer loop
vertex 18.45079484146784 29.09465268169926 2.5
vertex 20.450794841467836 25.73465268169926 0.0
vertex 20.450794841467836 25.73465268169926 2.5
endloop
endfacet
facet normal -0.8592928844097072 -0.511483859767682 -0.0
outer loop
vertex 20.450794841467836 25.73465268169926 0.0
vertex 18.45079484146784 29.09465268169926 2.5
vertex 18.45079484146784 29.09465268169926 0.0
endloop
endfacet
facet normal -1.0 0.0 0.0
outer loop
vertex 55.075290822554614 34.60660439423606 2.5
vertex 55.075290822554614 24.606604394236058 0.0
vertex 55.075290822554614 24.606604394236058 2.5
endloop
endfacet
facet normal -1.0 0.0 0.0
outer loop
vertex 55.075290822554614 24.606604394236058 0.0
vertex 55.075290822554614 34.60660439423606 2.5
vertex 55.075290822554614 34.60660439423606 0.0
endloop
endfacet
facet normal -0.8660254037844259 -0.5000000000000221 0.0
outer loop
vertex 22.316820245252266 43.59465268169925 2.5
vertex 22.416720667756916 43.35347172680178 0.0
vertex 22.416720667756916 43.35347172680178 2.5
endloop
endfacet
facet normal -0.9659258262890673 -0.25881904510252457 0.0
outer loop
vertex 22.416720667756916 43.35347172680178 0.0
vertex 22.316820245252266 43.59465268169925 2.5
vertex 22.316820245252266 43.59465268169925 0.0
endloop
endfacet
facet normal -3.038882551933276e-17 -0.7071067811865476 0.7071067811865475
outer loop
vertex 83.0752908225546 28.106604394236054 6.0
vertex 59.0752908225546 24.606604394236058 2.5
vertex 83.0752908225546 24.606604394236058 2.5
endloop
endfacet
facet normal -3.038882551933276e-17 -0.7071067811865476 0.7071067811865475
outer loop
vertex 59.0752908225546 24.606604394236058 2.5
vertex 83.0752908225546 28.106604394236054 6.0
vertex 70.5752908225546 28.106604394236054 5.999999999999999
endloop
endfacet
facet normal -3.038882551933276e-17 -0.7071067811865476 0.7071067811865475
outer loop
vertex 70.5752908225546 28.106604394236054 5.999999999999999
vertex 59.0752908225546 28.106604394236054 5.999999999999999
vertex 59.0752908225546 24.606604394236058 2.5
endloop
endfacet
facet normal -3.038882551933276e-17 -0.7071067811865476 0.7071067811865475
outer loop
vertex 59.0752908225546 28.106604394236054 5.999999999999999
vertex 70.5752908225546 28.106604394236054 5.999999999999999
vertex 67.5752908225546 28.106604394236054 5.999999999999999
endloop
endfacet
facet normal 0.8660254037844259 -0.5000000000000221 0.0
outer loop
vertex 20.5847694376834 43.59465268169925 0.0
vertex 20.48486901517875 43.35347172680178 2.5
vertex 20.48486901517875 43.35347172680178 0.0
endloop
endfacet
facet normal 0.9659258262890673 -0.25881904510252457 0.0
outer loop
vertex 20.48486901517875 43.35347172680178 2.5
vertex 20.5847694376834 43.59465268169925 0.0
vertex 20.5847694376834 43.59465268169925 2.5
endloop
endfacet
facet normal 0.5000000000000138 0.8660254037844307 0.0
outer loop
vertex 20.95079484146781 42.228627277914825 2.5
vertex 21.1919757963653 42.12872685541019 0.0
vertex 20.95079484146781 42.228627277914825 0.0
endloop
endfacet
facet normal 0.2588190451025124 0.9659258262890705 0.0
outer loop
vertex 21.1919757963653 42.12872685541019 0.0
vertex 20.95079484146781 42.228627277914825 2.5
vertex 21.1919757963653 42.12872685541019 2.5
endloop
endfacet
facet normal 0.70710678118657 0.7071067811865249 0.0
outer loop
vertex 20.743688060281283 29.727545900512713 2.5
vertex 20.95079484146781 29.568627277914818 0.0
vertex 20.743688060281283 29.727545900512713 0.0
endloop
endfacet
facet normal 0.5000000000000148 0.8660254037844302 0.0
outer loop
vertex 20.95079484146781 29.568627277914818 0.0
vertex 20.743688060281283 29.727545900512713 2.5
vertex 20.95079484146781 29.568627277914818 2.5
endloop
endfacet
facet normal -0.9659258262890673 -0.25881904510252457 0.0
outer loop
vertex 22.416720667756916 43.35347172680178 2.5
vertex 22.450794841467832 43.09465268169926 0.0
vertex 22.450794841467832 43.09465268169926 2.5
endloop
endfacet
facet normal -1.0 0.0 0.0
outer loop
vertex 22.450794841467832 43.09465268169926 0.0
vertex 22.416720667756916 43.35347172680178 2.5
vertex 22.416720667756916 43.35347172680178 0.0
endloop
endfacet
facet normal 0.8660254037844259 -0.5000000000000221 0.0
outer loop
vertex 20.5847694376834 37.23465268169926 0.0
vertex 20.48486901517875 36.99347172680177 2.5
vertex 20.48486901517875 36.99347172680177 0.0
endloop
endfacet
facet normal 0.9659258262890673 -0.25881904510252457 0.0
outer loop
vertex 20.48486901517875 36.99347172680177 2.5
vertex 20.5847694376834 37.23465268169926 0.0
vertex 20.5847694376834 37.23465268169926 2.5
endloop
endfacet
facet normal 0.0 -1.0 0.0
outer loop
vertex 83.0752908225546 31.10660439423606 2.5
vertex 74.57529082255459 31.10660439423606 0.0
vertex 83.0752908225546 31.10660439423606 0.0
endloop
endfacet
facet normal 0.0 -1.0 0.0
outer loop
vertex 74.57529082255459 31.10660439423606 0.0
vertex 83.0752908225546 31.10660439423606 2.5
vertex 74.57529082255459 31.10660439423606 2.5
endloop
endfacet
facet normal 0.0 -1.0 0.0
outer loop
vertex 74.57529082255459 31.10660439423606 2.5
vertex 83.0752908225546 31.10660439423606 2.5
vertex 83.0752908225546 31.10660439423606 6.0
endloop
endfacet
facet normal 0.0 -1.0 0.0
outer loop
vertex 74.57529082255459 31.10660439423606 2.5
vertex 83.0752908225546 31.10660439423606 6.0
vertex 70.5752908225546 31.10660439423606 2.5000000000000004
endloop
endfacet
facet normal 0.0 -1.0 0.0
outer loop
vertex 70.5752908225546 31.10660439423606 2.5000000000000004
vertex 83.0752908225546 31.10660439423606 6.0
vertex 70.5752908225546 31.10660439423606 5.999999999999999
endloop
endfacet
facet normal -2.1982657349054323e-17 0.7071067811865476 0.7071067811865476
outer loop
vertex 59.0752908225546 31.10660439423606 5.999999999999999
vertex 83.0752908225546 34.60660439423605 2.5
vertex 59.0752908225546 34.60660439423605 2.5
endloop
endfacet
facet normal -2.1982657349054323e-17 0.7071067811865476 0.7071067811865476
outer loop
vertex 83.0752908225546 34.60660439423605 2.5
vertex 59.0752908225546 31.10660439423606 5.999999999999999
vertex 70.5752908225546 31.10660439423606 5.999999999999999
endloop
endfacet
facet normal -2.1982657349054323e-17 0.7071067811865476 0.7071067811865476
outer loop
vertex 83.0752908225546 34.60660439423605 2.5
vertex 70.5752908225546 31.10660439423606 5.999999999999999
vertex 83.0752908225546 31.10660439423606 6.0
endloop
endfacet
facet normal -2.1982657349054323e-17 0.7071067811865476 0.7071067811865476
outer loop
vertex 70.5752908225546 31.10660439423606 5.999999999999999
vertex 59.0752908225546 31.10660439423606 5.999999999999999
vertex 67.5752908225546 31.10660439423606 5.999999999999999
endloop
endfacet
facet normal 0.0 1.0 0.0
outer loop
vertex 55.075290822554614 34.60660439423606 2.5
vertex 87.07529082255463 34.60660439423606 0.0
vertex 55.075290822554614 34.60660439423606 0.0
endloop
endfacet
facet normal 0.0 1.0 0.0
outer loop
vertex 87.07529082255463 34.60660439423606 0.0
vertex 55.075290822554614 34.60660439423606 2.5
vertex 87.07529082255463 34.60660439423606 2.5
endloop
endfacet
facet normal 0.0 1.0 0.0
outer loop
vertex 87.07529082255463 34.60660439423606 2.5
vertex 55.075290822554614 34.60660439423606 2.5
vertex 59.0752908225546 34.60660439423605 2.5
endloop
endfacet
facet normal 0.0 1.0 0.0
outer loop
vertex 87.07529082255463 34.60660439423606 2.5
vertex 59.0752908225546 34.60660439423605 2.5
vertex 83.0752908225546 34.60660439423605 2.5
endloop
endfacet
facet normal 0.9999997560586358 0.0006984859834555158 0.0
outer loop
vertex 46.950794841467854 30.23465268169926 0.0
vertex 46.959525918390916 17.734652681699263 2.5
vertex 46.959525918390916 17.734652681699263 0.0
endloop
endfacet
facet normal 0.9999997560586358 0.0006984859834555158 0.0
outer loop
vertex 46.959525918390916 17.734652681699263 2.5
vertex 46.950794841467854 30.23465268169926 0.0
vertex 46.950794841467854 30.23465268169926 2.5
endloop
endfacet
facet normal -0.5773502691896237 -0.5773502691896266 0.577350269189627
outer loop
vertex 59.0752908225546 28.106604394236054 5.999999999999999
vertex 55.575290822554585 28.106604394236054 2.5
vertex 59.0752908225546 24.606604394236058 2.5
endloop
endfacet
facet normal 1.0 0.0 0.0
outer loop
vertex 70.5752908225546 31.10660439423606 2.5000000000000004
vertex 70.5752908225546 28.106604394236054 5.999999999999999
vertex 70.5752908225546 28.106604394236054 2.500000000000001
endloop
endfacet
facet normal 1.0 0.0 0.0
outer loop
vertex 70.5752908225546 28.106604394236054 5.999999999999999
vertex 70.5752908225546 31.10660439423606 2.5000000000000004
vertex 70.5752908225546 31.10660439423606 5.999999999999999
endloop
endfacet
facet normal -1.0 0.0 0.0
outer loop
vertex 83.0752908225546 31.10660439423606 2.5
vertex 83.0752908225546 28.106604394236054 0.0
vertex 83.0752908225546 28.106604394236054 2.5
endloop
endfacet
facet normal -1.0 0.0 0.0
outer loop
vertex 83.0752908225546 28.106604394236054 0.0
vertex 83.0752908225546 31.10660439423606 2.5
vertex 83.0752908225546 31.10660439423606 0.0
endloop
endfacet
facet normal 0.7074927491413681 -0.7067206024394572 0.0
outer loop
vertex 46.959525918390916 17.734652681699263 0.0
vertex 41.96498284146786 12.734652681699261 2.5
vertex 41.96498284146786 12.734652681699261 0.0
endloop
endfacet
facet normal 0.7074927491413681 -0.7067206024394572 0.0
outer loop
vertex 41.96498284146786 12.734652681699261 2.5
vertex 46.959525918390916 17.734652681699263 0.0
vertex 46.959525918390916 17.734652681699263 2.5
endloop
endfacet
facet normal 0.0 0.0 1.0
outer loop
vertex 87.07529082255463 31.10660439423606 2.5
vertex 83.0752908225546 34.60660439423605 2.5
vertex 83.0752908225546 31.10660439423606 2.5
endloop
endfacet
facet normal 0.5261522196019766 0.6013168224022647 0.6013168224022646
outer loop
vertex 83.0752908225546 31.10660439423606 6.0
vertex 87.07529082255463 31.10660439423606 2.5
vertex 83.0752908225546 34.60660439423605 2.5
endloop
endfacet
facet normal 1.3218592886943293e-16 5.874930171974786e-17 1.0
outer loop
vertex 74.57529082255459 28.106604394236054 2.5
vertex 70.5752908225546 31.10660439423606 2.5000000000000004
vertex 70.5752908225546 28.106604394236054 2.500000000000001
endloop
endfacet
facet normal 1.3218592886943293e-16 5.874930171974786e-17 1.0
outer loop
vertex 70.5752908225546 31.10660439423606 2.5000000000000004
vertex 74.57529082255459 28.106604394236054 2.5
vertex 74.57529082255459 31.10660439423606 2.5
endloop
endfacet
facet normal 0.49999999999999684 -0.8660254037844404 0.0
outer loop
vertex 20.950794841467857 43.96067808548369 2.5
vertex 20.743688060281283 43.801759462885805 0.0
vertex 20.950794841467857 43.96067808548369 0.0
endloop
endfacet
facet normal 0.7071067811865327 -0.7071067811865623 0.0
outer loop
vertex 20.743688060281283 43.801759462885805 0.0
vertex 20.950794841467857 43.96067808548369 2.5
vertex 20.743688060281283 43.801759462885805 2.5
endloop
endfacet
facet normal 0.0 -1.0 0.0
outer loop
vertex 67.5752908225546 31.10660439423606 2.5
vertex 59.0752908225546 31.10660439423606 7.049916206369744e-16
vertex 67.5752908225546 31.10660439423606 0.0
endloop
endfacet
facet normal 0.0 -1.0 0.0
outer loop
vertex 59.0752908225546 31.10660439423606 7.049916206369744e-16
vertex 67.5752908225546 31.10660439423606 2.5
vertex 59.0752908225546 31.10660439423606 2.5
endloop
endfacet
facet normal 0.0 -1.0 0.0
outer loop
vertex 59.0752908225546 31.10660439423606 2.5
vertex 67.5752908225546 31.10660439423606 2.5
vertex 67.5752908225546 31.10660439423606 5.999999999999999
endloop
endfacet
facet normal 0.0 -1.0 0.0
outer loop
vertex 59.0752908225546 31.10660439423606 2.5
vertex 67.5752908225546 31.10660439423606 5.999999999999999
vertex 55.575290822554585 31.10660439423606 2.5
endloop
endfacet
facet normal 0.0 -1.0 0.0
outer loop
vertex 55.575290822554585 31.10660439423606 2.5
vertex 67.5752908225546 31.10660439423606 5.999999999999999
vertex 59.0752908225546 31.10660439423606 5.999999999999999
endloop
endfacet
facet normal 0.0 0.0 1.0
outer loop
vertex 70.5752908225546 28.106604394236054 5.999999999999999
vertex 67.5752908225546 31.10660439423606 5.999999999999999
vertex 67.5752908225546 28.106604394236054 5.999999999999999
endloop
endfacet
facet normal 0.0 0.0 1.0
outer loop
vertex 67.5752908225546 31.10660439423606 5.999999999999999
vertex 70.5752908225546 28.106604394236054 5.999999999999999
vertex 70.5752908225546 31.10660439423606 5.999999999999999
endloop
endfacet
facet normal -1.0 0.0 0.0
outer loop
vertex 67.5752908225546 31.10660439423606 5.999999999999999
vertex 67.5752908225546 28.106604394236054 2.5
vertex 67.5752908225546 28.106604394236054 5.999999999999999
endloop
endfacet
facet normal -1.0 0.0 0.0
outer loop
vertex 67.5752908225546 28.106604394236054 2.5
vertex 67.5752908225546 31.10660439423606 5.999999999999999
vertex 67.5752908225546 31.10660439423606 2.5
endloop
endfacet
facet normal 0.2588190451025444 -0.965925826289062 0.0
outer loop
vertex 21.1919757963653 31.400578507988325 2.5
vertex 20.950794841467857 31.300678085483696 0.0
vertex 21.1919757963653 31.400578507988325 0.0
endloop
endfacet
facet normal 0.49999999999999684 -0.8660254037844404 0.0
outer loop
vertex 20.950794841467857 31.300678085483696 0.0
vertex 21.1919757963653 31.400578507988325 2.5
vertex 20.950794841467857 31.300678085483696 2.5
endloop
endfacet
facet normal 0.5000000000000148 0.8660254037844302 0.0
outer loop
vertex 20.95079484146781 29.568627277914818 2.5
vertex 21.1919757963653 29.468726855410193 0.0
vertex 20.95079484146781 29.568627277914818 0.0
endloop
endfacet
facet normal 0.2588190451025124 0.9659258262890705 0.0
outer loop
vertex 21.1919757963653 29.468726855410193 0.0
vertex 20.95079484146781 29.568627277914818 2.5
vertex 21.1919757963653 29.468726855410193 2.5
endloop
endfacet
facet normal 0.0 0.0 1.0
outer loop
vertex 59.0752908225546 34.60660439423605 2.5
vertex 55.575290822554585 31.10660439423606 2.5
vertex 59.0752908225546 31.10660439423606 2.5
endloop
endfacet
facet normal 0.0 0.0 1.0
outer loop
vertex 87.07529082255463 28.106604394236054 2.5
vertex 83.0752908225546 31.10660439423606 2.5
vertex 83.0752908225546 28.106604394236054 2.5
endloop
endfacet
facet normal 0.0 0.0 1.0
outer loop
vertex 83.0752908225546 31.10660439423606 2.5
vertex 87.07529082255463 28.106604394236054 2.5
vertex 87.07529082255463 31.10660439423606 2.5
endloop
endfacet
facet normal 0.2588190451025124 0.9659258262890705 0.0
outer loop
vertex 21.1919757963653 29.468726855410193 2.5
vertex 21.450794841467832 29.43465268169926 0.0
vertex 21.1919757963653 29.468726855410193 0.0
endloop
endfacet
facet normal 0.0 1.0 0.0
outer loop
vertex 21.450794841467832 29.43465268169926 0.0
vertex 21.1919757963653 29.468726855410193 2.5
vertex 21.450794841467832 29.43465268169926 2.5
endloop
endfacet
facet normal -0.7071067811865699 -0.7071067811865253 0.0
outer loop
vertex 22.157901622654382 37.4417594628858 2.5
vertex 22.316820245252266 37.23465268169926 0.0
vertex 22.316820245252266 37.23465268169926 2.5
endloop
endfacet
facet normal -0.8660254037844259 -0.5000000000000221 0.0
outer loop
vertex 22.316820245252266 37.23465268169926 0.0
vertex 22.157901622654382 37.4417594628858 2.5
vertex 22.157901622654382 37.4417594628858 0.0
endloop
endfacet
facet normal -0.0 -1.0 -0.0
outer loop
vertex 87.07529082255463 24.606604394236058 2.5
vertex 55.075290822554614 24.606604394236058 0.0
vertex 87.07529082255463 24.606604394236058 0.0
endloop
endfacet
facet normal -0.0 -1.0 -0.0
outer loop
vertex 55.075290822554614 24.606604394236058 0.0
vertex 87.07529082255463 24.606604394236058 2.5
vertex 55.075290822554614 24.606604394236058 2.5
endloop
endfacet
facet normal -0.0 -1.0 -0.0
outer loop
vertex 55.075290822554614 24.606604394236058 2.5
vertex 87.07529082255463 24.606604394236058 2.5
vertex 83.0752908225546 24.606604394236058 2.5
endloop
endfacet
facet normal -0.0 -1.0 -0.0
outer loop
vertex 55.075290822554614 24.606604394236058 2.5
vertex 83.0752908225546 24.606604394236058 2.5
vertex 59.0752908225546 24.606604394236058 2.5
endloop
endfacet
facet normal 0.0 1.0 0.0
outer loop
vertex 83.0752908225546 28.106604394236054 6.0
vertex 87.07529082255463 28.106604394236054 2.5
vertex 83.0752908225546 28.106604394236054 2.5
endloop
endfacet
facet normal 0.0 0.0 1.0
outer loop
vertex 87.07529082255463 28.106604394236054 2.5
vertex 83.0752908225546 24.606604394236058 2.5
vertex 87.07529082255463 24.606604394236058 2.5
endloop
endfacet
facet normal 0.9659258262890673 -0.25881904510252457 0.0
outer loop
vertex 20.48486901517875 43.35347172680178 0.0
vertex 20.450794841467836 43.09465268169926 2.5
vertex 20.450794841467836 43.09465268169926 0.0
endloop
endfacet
facet normal 1.0 0.0 0.0
outer loop
vertex 20.450794841467836 43.09465268169926 2.5
vertex 20.48486901517875 43.35347172680178 0.0
vertex 20.48486901517875 43.35347172680178 2.5
endloop
endfacet
facet normal -0.4999999999999966 0.8660254037844406 0.0
outer loop
vertex 21.95079484146781 29.568627277914818 2.5
vertex 22.157901622654382 29.727545900512713 0.0
vertex 21.95079484146781 29.568627277914818 0.0
endloop
endfacet
facet normal -0.7071067811865336 0.7071067811865616 0.0
outer loop
vertex 22.157901622654382 29.727545900512713 0.0
vertex 21.95079484146781 29.568627277914818 2.5
vertex 22.157901622654382 29.727545900512713 2.5
endloop
endfacet
facet normal 0.0 1.0 0.0
outer loop
vertex 59.0752908225546 28.106604394236054 5.999999999999999
vertex 59.0752908225546 28.106604394236054 2.5
vertex 55.575290822554585 28.106604394236054 2.5
endloop
endfacet
facet normal 0.0 1.0 0.0
outer loop
vertex 59.0752908225546 28.106604394236054 2.5
vertex 59.0752908225546 28.106604394236054 5.999999999999999
vertex 67.5752908225546 28.106604394236054 2.5
endloop
endfacet
facet normal 0.0 1.0 0.0
outer loop
vertex 67.5752908225546 28.106604394236054 2.5
vertex 59.0752908225546 28.106604394236054 5.999999999999999
vertex 67.5752908225546 28.106604394236054 5.999999999999999
endloop
endfacet
facet normal 0.0 1.0 0.0
outer loop
vertex 59.0752908225546 28.106604394236054 7.049916206369744e-16
vertex 67.5752908225546 28.106604394236054 2.5
vertex 67.5752908225546 28.106604394236054 0.0
endloop
endfacet
facet normal 0.0 1.0 0.0
outer loop
vertex 67.5752908225546 28.106604394236054 2.5
vertex 59.0752908225546 28.106604394236054 7.049916206369744e-16
vertex 59.0752908225546 28.106604394236054 2.5
endloop
endfacet
facet normal 0.9659258262890672 -0.2588190451025249 0.0
outer loop
vertex 20.48486901517875 30.693471726801775 0.0
vertex 20.450794841467836 30.43465268169926 2.5
vertex 20.450794841467836 30.43465268169926 0.0
endloop
endfacet
facet normal 1.0 1.782221979129366e-16 0.0
outer loop
vertex 20.450794841467836 30.43465268169926 2.5
vertex 20.48486901517875 30.693471726801775 0.0
vertex 20.48486901517875 30.693471726801775 2.5
endloop
endfacet
facet normal -0.2588190451025124 -0.9659258262890705 0.0
outer loop
vertex 21.709613886570367 44.060578507988325 2.5
vertex 21.450794841467832 44.09465268169925 0.0
vertex 21.709613886570367 44.060578507988325 0.0
endloop
endfacet
facet normal 0.0 -1.0 0.0
outer loop
vertex 21.450794841467832 44.09465268169925 0.0
vertex 21.709613886570367 44.060578507988325 2.5
vertex 21.450794841467832 44.09465268169925 2.5
endloop
endfacet
facet normal -0.7071067811865699 -0.7071067811865253 0.0
outer loop
vertex 22.157901622654382 43.801759462885805 2.5
vertex 22.316820245252266 43.59465268169925 0.0
vertex 22.316820245252266 43.59465268169925 2.5
endloop
endfacet
facet normal -0.8660254037844259 -0.5000000000000221 0.0
outer loop
vertex 22.316820245252266 43.59465268169925 0.0
vertex 22.157901622654382 43.801759462885805 2.5
vertex 22.157901622654382 43.801759462885805 0.0
endloop
endfacet
facet normal 0.2588190451025124 0.9659258262890705 0.0
outer loop
vertex 21.1919757963653 42.12872685541019 2.5
vertex 21.450794841467832 42.09465268169926 0.0
vertex 21.1919757963653 42.12872685541019 0.0
endloop
endfacet
facet normal 0.0 1.0 0.0
outer loop
vertex 21.450794841467832 42.09465268169926 0.0
vertex 21.1919757963653 42.12872685541019 2.5
vertex 21.450794841467832 42.09465268169926 2.5
endloop
endfacet
facet normal 0.0 -1.0 0.0
outer loop
vertex 21.450794841467832 31.434652681699255 2.5
vertex 21.1919757963653 31.400578507988325 0.0
vertex 21.450794841467832 31.434652681699255 0.0
endloop
endfacet
facet normal 0.2588190451025444 -0.965925826289062 0.0
outer loop
vertex 21.1919757963653 31.400578507988325 0.0
vertex 21.450794841467832 31.434652681699255 2.5
vertex 21.1919757963653 31.400578507988325 2.5
endloop
endfacet
facet normal 0.0 1.0 0.0
outer loop
vertex 21.450794841467832 29.43465268169926 2.5
vertex 21.709613886570367 29.468726855410193 0.0
vertex 21.450794841467832 29.43465268169926 0.0
endloop
endfacet
facet normal -0.25881904510254206 0.9659258262890627 0.0
outer loop
vertex 21.709613886570367 29.468726855410193 0.0
vertex 21.450794841467832 29.43465268169926 2.5
vertex 21.709613886570367 29.468726855410193 2.5
endloop
endfacet
facet normal 0.9659258262890673 0.25881904510252457 0.0
outer loop
vertex 20.48486901517875 30.17583363659674 0.0
vertex 20.5847694376834 29.93465268169926 2.5
vertex 20.5847694376834 29.93465268169926 0.0
endloop
endfacet
facet normal 0.8660254037844255 0.5000000000000229 0.0
outer loop
vertex 20.5847694376834 29.93465268169926 2.5
vertex 20.48486901517875 30.17583363659674 0.0
vertex 20.48486901517875 30.17583363659674 2.5
endloop
endfacet
facet normal 1.0 0.0 0.0
outer loop
vertex 87.07529082255463 34.60660439423606 0.0
vertex 87.07529082255463 24.606604394236058 2.5
vertex 87.07529082255463 24.606604394236058 0.0
endloop
endfacet
facet normal 1.0 0.0 0.0
outer loop
vertex 87.07529082255463 24.606604394236058 2.5
vertex 87.07529082255463 34.60660439423606 0.0
vertex 87.07529082255463 28.106604394236054 2.5
endloop
endfacet
facet normal 1.0 0.0 0.0
outer loop
vertex 87.07529082255463 28.106604394236054 2.5
vertex 87.07529082255463 34.60660439423606 0.0
vertex 87.07529082255463 31.10660439423606 2.5
endloop
endfacet
facet normal 1.0 0.0 0.0
outer loop
vertex 87.07529082255463 31.10660439423606 2.5
vertex 87.07529082255463 34.60660439423606 0.0
vertex 87.07529082255463 34.60660439423606 2.5
endloop
endfacet
facet normal -1.0 -3.475332859302263e-16 0.0
outer loop
vertex 22.450794841467832 30.43465268169926 2.5
vertex 22.416720667756916 30.175833636596735 0.0
vertex 22.416720667756916 30.175833636596735 2.5
endloop
endfacet
facet normal -0.9659258262890672 0.25881904510252474 0.0
outer loop
vertex 22.416720667756916 30.175833636596735 0.0
vertex 22.450794841467832 30.43465268169926 2.5
vertex 22.450794841467832 30.43465268169926 0.0
endloop
endfacet
facet normal -0.9659258262890673 -0.25881904510252457 0.0
outer loop
vertex 22.416720667756916 30.693471726801775 2.5
vertex 22.450794841467832 30.43465268169926 0.0
vertex 22.450794841467832 30.43465268169926 2.5
endloop
endfacet
facet normal -1.0 -3.475332859302263e-16 0.0
outer loop
vertex 22.450794841467832 30.43465268169926 0.0
vertex 22.416720667756916 30.693471726801775 2.5
vertex 22.416720667756916 30.693471726801775 0.0
endloop
endfacet
facet normal -0.4999999999999966 0.8660254037844406 0.0
outer loop
vertex 21.95079484146781 35.86862727791482 2.5
vertex 22.157901622654382 36.02754590051271 0.0
vertex 21.95079484146781 35.86862727791482 0.0
endloop
endfacet
facet normal -0.7071067811865341 0.7071067811865608 0.0
outer loop
vertex 22.157901622654382 36.02754590051271 0.0
vertex 21.95079484146781 35.86862727791482 2.5
vertex 22.157901622654382 36.02754590051271 2.5
endloop
endfacet
facet normal 0.0 0.0 1.0
outer loop
vertex 87.07529082255463 28.106604394236054 2.5
vertex 83.0752908225546 28.106604394236054 2.5
vertex 83.0752908225546 24.606604394236058 2.5
endloop
endfacet
facet normal 1.0 1.782221979129366e-16 0.0
outer loop
vertex 20.450794841467836 30.43465268169926 0.0
vertex 20.48486901517875 30.17583363659674 2.5
vertex 20.48486901517875 30.17583363659674 0.0
endloop
endfacet
facet normal 0.9659258262890673 0.25881904510252457 0.0
outer loop
vertex 20.48486901517875 30.17583363659674 2.5
vertex 20.450794841467836 30.43465268169926 0.0
vertex 20.450794841467836 30.43465268169926 2.5
endloop
endfacet
facet normal 0.0 1.0 0.0
outer loop
vertex 67.5752908225546 28.106604394236054 5.999999999999999
vertex 70.5752908225546 28.106604394236054 2.500000000000001
vertex 67.5752908225546 28.106604394236054 2.5
endloop
endfacet
facet normal 0.0 1.0 0.0
outer loop
vertex 70.5752908225546 28.106604394236054 2.500000000000001
vertex 67.5752908225546 28.106604394236054 5.999999999999999
vertex 70.5752908225546 28.106604394236054 5.999999999999999
endloop
endfacet
facet normal 0.0 0.0 1.0
outer loop
vertex 87.07529082255463 34.60660439423606 2.5
vertex 83.0752908225546 34.60660439423605 2.5
vertex 87.07529082255463 31.10660439423606 2.5
endloop
endfacet
facet normal -0.9659258262890673 0.25881904510252457 0.0
outer loop
vertex 22.416720667756916 42.83583363659673 2.5
vertex 22.316820245252266 42.59465268169926 0.0
vertex 22.316820245252266 42.59465268169926 2.5
endloop
endfacet
facet normal -0.8660254037844259 0.5000000000000221 0.0
outer loop
vertex 22.316820245252266 42.59465268169926 0.0
vertex 22.416720667756916 42.83583363659673 2.5
vertex 22.416720667756916 42.83583363659673 0.0
endloop
endfacet
facet normal 1.0 0.0 0.0
outer loop
vertex 83.0752908225546 28.106604394236054 6.0
vertex 83.0752908225546 24.606604394236058 2.5
vertex 83.0752908225546 28.106604394236054 2.5
endloop
endfacet
facet normal -0.8660254037844252 0.5000000000000232 0.0
outer loop
vertex 22.316820245252266 29.93465268169926 2.5
vertex 22.157901622654382 29.727545900512713 0.0
vertex 22.157901622654382 29.727545900512713 2.5
endloop
endfacet
facet normal -0.7071067811865336 0.7071067811865616 0.0
outer loop
vertex 22.157901622654382 29.727545900512713 0.0
vertex 22.316820245252266 29.93465268169926 2.5
vertex 22.316820245252266 29.93465268169926 0.0
endloop
endfacet
facet normal 1.0 0.0 0.0
outer loop
vertex 83.0752908225546 34.60660439423605 2.5
vertex 83.0752908225546 31.10660439423606 6.0
vertex 83.0752908225546 31.10660439423606 2.5
endloop
endfacet
facet normal -1.0 0.0 0.0
outer loop
vertex 67.5752908225546 31.10660439423606 2.5
vertex 67.5752908225546 28.106604394236054 0.0
vertex 67.5752908225546 28.106604394236054 2.5
endloop
endfacet
facet normal -1.0 0.0 0.0
outer loop
vertex 67.5752908225546 28.106604394236054 0.0
vertex 67.5752908225546 31.10660439423606 2.5
vertex 67.5752908225546 31.10660439423606 0.0
endloop
endfacet
facet normal -0.8660254037844259 -0.5000000000000221 0.0
outer loop
vertex 22.316820245252266 30.934652681699255 2.5
vertex 22.416720667756916 30.693471726801775 0.0
vertex 22.416720667756916 30.693471726801775 2.5
endloop
endfacet
facet normal -0.9659258262890673 -0.25881904510252457 0.0
outer loop
vertex 22.416720667756916 30.693471726801775 0.0
vertex 22.316820245252266 30.934652681699255 2.5
vertex 22.316820245252266 30.934652681699255 0.0
endloop
endfacet
facet normal 0.8660254037844256 -0.5000000000000224 0.0
outer loop
vertex 20.5847694376834 30.934652681699255 0.0
vertex 20.48486901517875 30.693471726801775 2.5
vertex 20.48486901517875 30.693471726801775 0.0
endloop
endfacet
facet normal 0.9659258262890672 -0.2588190451025249 0.0
outer loop
vertex 20.48486901517875 30.693471726801775 2.5
vertex 20.5847694376834 30.934652681699255 0.0
vertex 20.5847694376834 30.934652681699255 2.5
endloop
endfacet
facet normal -0.5773502691896237 0.5773502691896266 0.577350269189627
outer loop
vertex 59.0752908225546 34.60660439423605 2.5
vertex 55.575290822554585 31.10660439423606 2.5
vertex 59.0752908225546 31.10660439423606 5.999999999999999
endloop
endfacet
facet normal 0.0 1.0 0.0
outer loop
vertex 74.57529082255459 28.106604394236054 2.5
vertex 83.0752908225546 28.106604394236054 0.0
vertex 74.57529082255459 28.106604394236054 0.0
endloop
endfacet
facet normal 0.0 1.0 0.0
outer loop
vertex 83.0752908225546 28.106604394236054 0.0
vertex 74.57529082255459 28.106604394236054 2.5
vertex 83.0752908225546 28.106604394236054 2.5
endloop
endfacet
facet normal 0.0 1.0 0.0
outer loop
vertex 83.0752908225546 28.106604394236054 2.5
vertex 74.57529082255459 28.106604394236054 2.5
vertex 70.5752908225546 28.106604394236054 2.500000000000001
endloop
endfacet
facet normal 0.0 1.0 0.0
outer loop
vertex 83.0752908225546 28.106604394236054 2.5
vertex 70.5752908225546 28.106604394236054 2.500000000000001
vertex 83.0752908225546 28.106604394236054 6.0
endloop
endfacet
facet normal 0.0 1.0 0.0
outer loop
vertex 83.0752908225546 28.106604394236054 6.0
vertex 70.5752908225546 28.106604394236054 2.500000000000001
vertex 70.5752908225546 28.106604394236054 5.999999999999999
endloop
endfacet
facet normal 0.0 0.0 1.0
outer loop
vertex 59.0752908225546 28.106604394236054 2.5
vertex 55.575290822554585 28.106604394236054 2.5
vertex 59.0752908225546 24.606604394236058 2.5
endloop
endfacet
facet normal -0.7071067811865699 -0.7071067811865253 0.0
outer loop
vertex 22.157901622654382 31.1417594628858 2.5
vertex 21.950794841467854 31.300678085483696 0.0
vertex 22.157901622654382 31.1417594628858 0.0
endloop
endfacet
facet normal -0.5000000000000138 -0.8660254037844307 0.0
outer loop
vertex 21.950794841467854 31.300678085483696 0.0
vertex 22.157901622654382 31.1417594628858 2.5
vertex 21.950794841467854 31.300678085483696 2.5
endloop
endfacet
facet normal -0.5000000000000138 -0.8660254037844307 0.0
outer loop
vertex 21.950794841467854 31.300678085483696 2.5
vertex 21.709613886570367 31.400578507988325 0.0
vertex 21.950794841467854 31.300678085483696 0.0
endloop
endfacet
facet normal -0.2588190451025124 -0.9659258262890705 0.0
outer loop
vertex 21.709613886570367 31.400578507988325 0.0
vertex 21.950794841467854 31.300678085483696 2.5
vertex 21.709613886570367 31.400578507988325 2.5
endloop
endfacet
facet normal 1.0 0.0 0.0
outer loop
vertex 74.57529082255459 31.10660439423606 0.0
vertex 74.57529082255459 28.106604394236054 2.5
vertex 74.57529082255459 28.106604394236054 0.0
endloop
endfacet
facet normal 1.0 0.0 0.0
outer loop
vertex 74.57529082255459 28.106604394236054 2.5
vertex 74.57529082255459 31.10660439423606 0.0
vertex 74.57529082255459 31.10660439423606 2.5
endloop
endfacet
facet normal -0.2588190451025124 -0.9659258262890705 0.0
outer loop
vertex 21.709613886570367 31.400578507988325 2.5
vertex 21.450794841467832 31.434652681699255 0.0
vertex 21.709613886570367 31.400578507988325 0.0
endloop
endfacet
facet normal 0.0 -1.0 0.0
outer loop
vertex 21.450794841467832 31.434652681699255 0.0
vertex 21.709613886570367 31.400578507988325 2.5
vertex 21.450794841467832 31.434652681699255 2.5
endloop
endfacet
facet normal 0.0 0.0 -1.0
outer loop
vertex 55.075290822554614 34.60660439423606 0.0
vertex 59.0752908225546 31.10660439423606 7.049916206369744e-16
vertex 55.075290822554614 24.606604394236058 0.0
endloop
endfacet
facet normal 0.0 0.0 -1.0
outer loop
vertex 59.0752908225546 31.10660439423606 7.049916206369744e-16
vertex 55.075290822554614 34.60660439423606 0.0
vertex 87.07529082255463 34.60660439423606 0.0
endloop
endfacet
facet normal 0.0 0.0 -1.0
outer loop
vertex 59.0752908225546 31.10660439423606 7.049916206369744e-16
vertex 87.07529082255463 34.60660439423606 0.0
vertex 67.5752908225546 31.10660439423606 0.0
endloop
endfacet
facet normal 0.0 0.0 -1.0
outer loop
vertex 67.5752908225546 31.10660439423606 0.0
vertex 87.07529082255463 34.60660439423606 0.0
vertex 74.57529082255459 31.10660439423606 0.0
endloop
endfacet
facet normal 0.0 0.0 -1.0
outer loop
vertex 67.5752908225546 31.10660439423606 0.0
vertex 74.57529082255459 31.10660439423606 0.0
vertex 67.5752908225546 28.106604394236054 0.0
endloop
endfacet
facet normal 0.0 0.0 -1.0
outer loop
vertex 74.57529082255459 31.10660439423606 0.0
vertex 87.07529082255463 34.60660439423606 0.0
vertex 83.0752908225546 31.10660439423606 0.0
endloop
endfacet
facet normal 0.0 0.0 -1.0
outer loop
vertex 83.0752908225546 31.10660439423606 0.0
vertex 87.07529082255463 34.60660439423606 0.0
vertex 83.0752908225546 28.106604394236054 0.0
endloop
endfacet
facet normal 0.0 0.0 -1.0
outer loop
vertex 55.075290822554614 24.606604394236058 0.0
vertex 59.0752908225546 28.106604394236054 7.049916206369744e-16
vertex 87.07529082255463 24.606604394236058 0.0
endloop
endfacet
facet normal 0.0 0.0 -1.0
outer loop
vertex 59.0752908225546 28.106604394236054 7.049916206369744e-16
vertex 55.075290822554614 24.606604394236058 0.0
vertex 59.0752908225546 31.10660439423606 7.049916206369744e-16
endloop
endfacet
facet normal 0.0 0.0 -1.0
outer loop
vertex 87.07529082255463 24.606604394236058 0.0
vertex 59.0752908225546 28.106604394236054 7.049916206369744e-16
vertex 67.5752908225546 28.106604394236054 0.0
endloop
endfacet
facet normal 0.0 0.0 -1.0
outer loop
vertex 87.07529082255463 24.606604394236058 0.0
vertex 67.5752908225546 28.106604394236054 0.0
vertex 74.57529082255459 28.106604394236054 0.0
endloop
endfacet
facet normal 0.0 0.0 -1.0
outer loop
vertex 74.57529082255459 28.106604394236054 0.0
vertex 67.5752908225546 28.106604394236054 0.0
vertex 74.57529082255459 31.10660439423606 0.0
endloop
endfacet
facet normal 0.0 0.0 -1.0
outer loop
vertex 87.07529082255463 24.606604394236058 0.0
vertex 74.57529082255459 28.106604394236054 0.0
vertex 83.0752908225546 28.106604394236054 0.0
endloop
endfacet
facet normal 0.0 0.0 -1.0
outer loop
vertex 87.07529082255463 24.606604394236058 0.0
vertex 83.0752908225546 28.106604394236054 0.0
vertex 87.07529082255463 34.60660439423606 0.0
endloop
endfacet
facet normal 1.0 0.0 0.0
outer loop
vertex 59.0752908225546 31.10660439423606 7.049916206369744e-16
vertex 59.0752908225546 28.106604394236054 2.5
vertex 59.0752908225546 28.106604394236054 7.049916206369744e-16
endloop
endfacet
facet normal 1.0 0.0 0.0
outer loop
vertex 59.0752908225546 28.106604394236054 2.5
vertex 59.0752908225546 31.10660439423606 7.049916206369744e-16
vertex 59.0752908225546 31.10660439423606 2.5
endloop
endfacet
facet normal -0.9659258262890672 0.25881904510252474 0.0
outer loop
vertex 22.416720667756916 30.175833636596735 2.5
vertex 22.316820245252266 29.93465268169926 0.0
vertex 22.316820245252266 29.93465268169926 2.5
endloop
endfacet
facet normal -0.8660254037844252 0.5000000000000232 0.0
outer loop
vertex 22.316820245252266 29.93465268169926 0.0
vertex 22.416720667756916 30.175833636596735 2.5
vertex 22.416720667756916 30.175833636596735 0.0
endloop
endfacet
facet normal 0.5261522196019766 -0.6013168224022647 0.6013168224022646
outer loop
vertex 83.0752908225546 28.106604394236054 6.0
vertex 83.0752908225546 24.606604394236058 2.5
vertex 87.07529082255463 28.106604394236054 2.5
endloop
endfacet
facet normal 0.7071067811865327 -0.7071067811865623 0.0
outer loop
vertex 20.743688060281283 31.1417594628858 0.0
vertex 20.5847694376834 30.934652681699255 2.5
vertex 20.5847694376834 30.934652681699255 0.0
endloop
endfacet
facet normal 0.8660254037844256 -0.5000000000000224 0.0
outer loop
vertex 20.5847694376834 30.934652681699255 2.5
vertex 20.743688060281283 31.1417594628858 0.0
vertex 20.743688060281283 31.1417594628858 2.5
endloop
endfacet
endsolid VAS Banshee Stecter Horn
